<mxfile host="app.diagrams.net" modified="2021-10-03T20:46:59.560Z" agent="5.0 (Windows NT 10.0; Win64; x64) AppleWebKit/537.36 (KHTML, like Gecko) Chrome/92.0.4515.131 Safari/537.36 OPR/78.0.4093.186" etag="Tn9hV-p9XYXuxE-aWN-_" version="15.4.1" type="github">
  <diagram id="L-4JTbhqK5Z3GWyyr0-M" name="Page-1">
    <mxGraphModel dx="2849" dy="2666" grid="1" gridSize="10" guides="1" tooltips="1" connect="1" arrows="1" fold="1" page="1" pageScale="1" pageWidth="850" pageHeight="1100" math="0" shadow="0">
      <root>
        <mxCell id="0" />
        <mxCell id="1" parent="0" />
        <mxCell id="xQv_WQrhD44Ifs19qAYC-1" value="" style="ellipse;whiteSpace=wrap;html=1;aspect=fixed;hachureGap=4;pointerEvents=0;" parent="1" vertex="1">
          <mxGeometry x="3460" y="1000" width="80" height="80" as="geometry" />
        </mxCell>
        <mxCell id="xQv_WQrhD44Ifs19qAYC-2" value="" style="ellipse;whiteSpace=wrap;html=1;aspect=fixed;hachureGap=4;pointerEvents=0;" parent="1" vertex="1">
          <mxGeometry x="3540" y="1000" width="80" height="80" as="geometry" />
        </mxCell>
        <mxCell id="xQv_WQrhD44Ifs19qAYC-3" value="" style="ellipse;whiteSpace=wrap;html=1;hachureGap=4;pointerEvents=0;" parent="1" vertex="1">
          <mxGeometry x="3490" y="680" width="120" height="370" as="geometry" />
        </mxCell>
        <mxCell id="VXNcRWfN4zNZ4ETa913i-1" value="Indexer" style="swimlane;fontStyle=1;align=center;verticalAlign=top;childLayout=stackLayout;horizontal=1;startSize=26;horizontalStack=0;resizeParent=1;resizeParentMax=0;resizeLast=0;collapsible=1;marginBottom=0;hachureGap=4;pointerEvents=0;" parent="1" vertex="1">
          <mxGeometry x="840" y="370" width="240" height="90" as="geometry">
            <mxRectangle x="800" y="400" width="70" height="26" as="alternateBounds" />
          </mxGeometry>
        </mxCell>
        <mxCell id="VXNcRWfN4zNZ4ETa913i-3" value="" style="line;strokeWidth=1;fillColor=none;align=left;verticalAlign=middle;spacingTop=-1;spacingLeft=3;spacingRight=3;rotatable=0;labelPosition=right;points=[];portConstraint=eastwest;" parent="VXNcRWfN4zNZ4ETa913i-1" vertex="1">
          <mxGeometry y="26" width="240" height="10" as="geometry" />
        </mxCell>
        <mxCell id="VXNcRWfN4zNZ4ETa913i-4" value="+ makeIndex(doc: Document): Index &#xa;&#xa;+ scheduleExtract(dataSource): void&#xa;" style="text;strokeColor=none;fillColor=none;align=left;verticalAlign=top;spacingLeft=4;spacingRight=4;overflow=hidden;rotatable=0;points=[[0,0.5],[1,0.5]];portConstraint=eastwest;" parent="VXNcRWfN4zNZ4ETa913i-1" vertex="1">
          <mxGeometry y="36" width="240" height="54" as="geometry" />
        </mxCell>
        <mxCell id="VXNcRWfN4zNZ4ETa913i-5" value="DocumentIndex" style="swimlane;fontStyle=1;align=center;verticalAlign=top;childLayout=stackLayout;horizontal=1;startSize=26;horizontalStack=0;resizeParent=1;resizeParentMax=0;resizeLast=0;collapsible=1;marginBottom=0;hachureGap=4;pointerEvents=0;" parent="1" vertex="1">
          <mxGeometry x="425" y="1006" width="160" height="140" as="geometry" />
        </mxCell>
        <mxCell id="VXNcRWfN4zNZ4ETa913i-6" value="+ docID: Int&#xa;+ docStatus: String&#xa;+ hash: String&#xa;+ docData: DocumentData&#xa;+ visits: Int&#xa;+ seoRank: Int" style="text;strokeColor=none;fillColor=none;align=left;verticalAlign=top;spacingLeft=4;spacingRight=4;overflow=hidden;rotatable=0;points=[[0,0.5],[1,0.5]];portConstraint=eastwest;" parent="VXNcRWfN4zNZ4ETa913i-5" vertex="1">
          <mxGeometry y="26" width="160" height="114" as="geometry" />
        </mxCell>
        <mxCell id="VXNcRWfN4zNZ4ETa913i-38" value="Hit" style="swimlane;fontStyle=3;align=center;verticalAlign=top;childLayout=stackLayout;horizontal=1;startSize=26;horizontalStack=0;resizeParent=1;resizeParentMax=0;resizeLast=0;collapsible=1;marginBottom=0;hachureGap=4;pointerEvents=0;" parent="1" vertex="1">
          <mxGeometry x="680" y="1460" width="160" height="58" as="geometry">
            <mxRectangle x="680" y="1460" width="50" height="26" as="alternateBounds" />
          </mxGeometry>
        </mxCell>
        <mxCell id="VXNcRWfN4zNZ4ETa913i-39" value="+ positions: Int[0..*]" style="text;strokeColor=none;fillColor=none;align=left;verticalAlign=top;spacingLeft=4;spacingRight=4;overflow=hidden;rotatable=0;points=[[0,0.5],[1,0.5]];portConstraint=eastwest;" parent="VXNcRWfN4zNZ4ETa913i-38" vertex="1">
          <mxGeometry y="26" width="160" height="24" as="geometry" />
        </mxCell>
        <mxCell id="VXNcRWfN4zNZ4ETa913i-40" value="" style="line;strokeWidth=1;fillColor=none;align=left;verticalAlign=middle;spacingTop=-1;spacingLeft=3;spacingRight=3;rotatable=0;labelPosition=right;points=[];portConstraint=eastwest;" parent="VXNcRWfN4zNZ4ETa913i-38" vertex="1">
          <mxGeometry y="50" width="160" height="8" as="geometry" />
        </mxCell>
        <mxCell id="VXNcRWfN4zNZ4ETa913i-43" value="PlainHit" style="swimlane;fontStyle=1;align=center;verticalAlign=top;childLayout=stackLayout;horizontal=1;startSize=26;horizontalStack=0;resizeParent=1;resizeParentMax=0;resizeLast=0;collapsible=1;marginBottom=0;hachureGap=4;pointerEvents=0;" parent="1" vertex="1">
          <mxGeometry x="550" y="1640" width="160" height="34" as="geometry">
            <mxRectangle x="550" y="1640" width="80" height="26" as="alternateBounds" />
          </mxGeometry>
        </mxCell>
        <mxCell id="VXNcRWfN4zNZ4ETa913i-45" value="" style="line;strokeWidth=1;fillColor=none;align=left;verticalAlign=middle;spacingTop=-1;spacingLeft=3;spacingRight=3;rotatable=0;labelPosition=right;points=[];portConstraint=eastwest;" parent="VXNcRWfN4zNZ4ETa913i-43" vertex="1">
          <mxGeometry y="26" width="160" height="8" as="geometry" />
        </mxCell>
        <mxCell id="VXNcRWfN4zNZ4ETa913i-48" value="FancyHit" style="swimlane;fontStyle=1;align=center;verticalAlign=top;childLayout=stackLayout;horizontal=1;startSize=26;horizontalStack=0;resizeParent=1;resizeParentMax=0;resizeLast=0;collapsible=1;marginBottom=0;hachureGap=4;pointerEvents=0;" parent="1" vertex="1">
          <mxGeometry x="800" y="1640" width="160" height="34" as="geometry">
            <mxRectangle x="800" y="1640" width="80" height="26" as="alternateBounds" />
          </mxGeometry>
        </mxCell>
        <mxCell id="VXNcRWfN4zNZ4ETa913i-50" value="" style="line;strokeWidth=1;fillColor=none;align=left;verticalAlign=middle;spacingTop=-1;spacingLeft=3;spacingRight=3;rotatable=0;labelPosition=right;points=[];portConstraint=eastwest;" parent="VXNcRWfN4zNZ4ETa913i-48" vertex="1">
          <mxGeometry y="26" width="160" height="8" as="geometry" />
        </mxCell>
        <mxCell id="UL4YKMBXZopJeCdpC2au-22" value="Index" style="swimlane;fontStyle=3;align=center;verticalAlign=top;childLayout=stackLayout;horizontal=1;startSize=26;horizontalStack=0;resizeParent=1;resizeParentMax=0;resizeLast=0;collapsible=1;marginBottom=0;" parent="1" vertex="1">
          <mxGeometry x="640" y="612" width="160" height="34" as="geometry" />
        </mxCell>
        <mxCell id="UL4YKMBXZopJeCdpC2au-24" value="" style="line;strokeWidth=1;fillColor=none;align=left;verticalAlign=middle;spacingTop=-1;spacingLeft=3;spacingRight=3;rotatable=0;labelPosition=right;points=[];portConstraint=eastwest;" parent="UL4YKMBXZopJeCdpC2au-22" vertex="1">
          <mxGeometry y="26" width="160" height="8" as="geometry" />
        </mxCell>
        <mxCell id="UL4YKMBXZopJeCdpC2au-42" value="Searcher" style="swimlane;fontStyle=3;align=center;verticalAlign=top;childLayout=stackLayout;horizontal=1;startSize=26;horizontalStack=0;resizeParent=1;resizeParentMax=0;resizeLast=0;collapsible=1;marginBottom=0;" parent="1" vertex="1">
          <mxGeometry x="3030" y="370" width="230" height="94" as="geometry" />
        </mxCell>
        <mxCell id="UL4YKMBXZopJeCdpC2au-44" value="" style="line;strokeWidth=1;fillColor=none;align=left;verticalAlign=middle;spacingTop=-1;spacingLeft=3;spacingRight=3;rotatable=0;labelPosition=right;points=[];portConstraint=eastwest;" parent="UL4YKMBXZopJeCdpC2au-42" vertex="1">
          <mxGeometry y="26" width="230" height="8" as="geometry" />
        </mxCell>
        <mxCell id="UL4YKMBXZopJeCdpC2au-45" value="+ search(query: Query): queryResponse" style="text;strokeColor=none;fillColor=none;align=left;verticalAlign=top;spacingLeft=4;spacingRight=4;overflow=hidden;rotatable=0;points=[[0,0.5],[1,0.5]];portConstraint=eastwest;" parent="UL4YKMBXZopJeCdpC2au-42" vertex="1">
          <mxGeometry y="34" width="230" height="60" as="geometry" />
        </mxCell>
        <mxCell id="UL4YKMBXZopJeCdpC2au-46" value="ImageSearcher" style="swimlane;fontStyle=1;align=center;verticalAlign=top;childLayout=stackLayout;horizontal=1;startSize=26;horizontalStack=0;resizeParent=1;resizeParentMax=0;resizeLast=0;collapsible=1;marginBottom=0;" parent="1" vertex="1">
          <mxGeometry x="2890" y="560" width="220" height="86" as="geometry" />
        </mxCell>
        <mxCell id="UL4YKMBXZopJeCdpC2au-47" value="+ field: type" style="text;strokeColor=none;fillColor=none;align=left;verticalAlign=top;spacingLeft=4;spacingRight=4;overflow=hidden;rotatable=0;points=[[0,0.5],[1,0.5]];portConstraint=eastwest;" parent="UL4YKMBXZopJeCdpC2au-46" vertex="1">
          <mxGeometry y="26" width="220" height="26" as="geometry" />
        </mxCell>
        <mxCell id="UL4YKMBXZopJeCdpC2au-48" value="" style="line;strokeWidth=1;fillColor=none;align=left;verticalAlign=middle;spacingTop=-1;spacingLeft=3;spacingRight=3;rotatable=0;labelPosition=right;points=[];portConstraint=eastwest;" parent="UL4YKMBXZopJeCdpC2au-46" vertex="1">
          <mxGeometry y="52" width="220" height="8" as="geometry" />
        </mxCell>
        <mxCell id="UL4YKMBXZopJeCdpC2au-49" value="+ method(type): type" style="text;strokeColor=none;fillColor=none;align=left;verticalAlign=top;spacingLeft=4;spacingRight=4;overflow=hidden;rotatable=0;points=[[0,0.5],[1,0.5]];portConstraint=eastwest;" parent="UL4YKMBXZopJeCdpC2au-46" vertex="1">
          <mxGeometry y="60" width="220" height="26" as="geometry" />
        </mxCell>
        <mxCell id="UL4YKMBXZopJeCdpC2au-50" value="StringSearcher" style="swimlane;fontStyle=1;align=center;verticalAlign=top;childLayout=stackLayout;horizontal=1;startSize=26;horizontalStack=0;resizeParent=1;resizeParentMax=0;resizeLast=0;collapsible=1;marginBottom=0;" parent="1" vertex="1">
          <mxGeometry x="3170" y="560" width="220" height="86" as="geometry" />
        </mxCell>
        <mxCell id="UL4YKMBXZopJeCdpC2au-51" value="+ field: type" style="text;strokeColor=none;fillColor=none;align=left;verticalAlign=top;spacingLeft=4;spacingRight=4;overflow=hidden;rotatable=0;points=[[0,0.5],[1,0.5]];portConstraint=eastwest;" parent="UL4YKMBXZopJeCdpC2au-50" vertex="1">
          <mxGeometry y="26" width="220" height="26" as="geometry" />
        </mxCell>
        <mxCell id="UL4YKMBXZopJeCdpC2au-52" value="" style="line;strokeWidth=1;fillColor=none;align=left;verticalAlign=middle;spacingTop=-1;spacingLeft=3;spacingRight=3;rotatable=0;labelPosition=right;points=[];portConstraint=eastwest;" parent="UL4YKMBXZopJeCdpC2au-50" vertex="1">
          <mxGeometry y="52" width="220" height="8" as="geometry" />
        </mxCell>
        <mxCell id="UL4YKMBXZopJeCdpC2au-53" value="+ method(type): type" style="text;strokeColor=none;fillColor=none;align=left;verticalAlign=top;spacingLeft=4;spacingRight=4;overflow=hidden;rotatable=0;points=[[0,0.5],[1,0.5]];portConstraint=eastwest;" parent="UL4YKMBXZopJeCdpC2au-50" vertex="1">
          <mxGeometry y="60" width="220" height="26" as="geometry" />
        </mxCell>
        <mxCell id="UL4YKMBXZopJeCdpC2au-56" value="" style="endArrow=block;dashed=1;endFill=0;endSize=12;html=1;rounded=0;edgeStyle=orthogonalEdgeStyle;entryX=0.421;entryY=1.047;entryDx=0;entryDy=0;entryPerimeter=0;exitX=0.466;exitY=-0.017;exitDx=0;exitDy=0;exitPerimeter=0;" parent="1" source="UL4YKMBXZopJeCdpC2au-46" target="UL4YKMBXZopJeCdpC2au-45" edge="1">
          <mxGeometry width="160" relative="1" as="geometry">
            <mxPoint x="2990" y="550" as="sourcePoint" />
            <mxPoint x="3110" y="500" as="targetPoint" />
            <Array as="points">
              <mxPoint x="2993" y="500" />
              <mxPoint x="3118" y="500" />
            </Array>
          </mxGeometry>
        </mxCell>
        <mxCell id="UL4YKMBXZopJeCdpC2au-58" value="" style="endArrow=block;dashed=1;endFill=0;endSize=12;html=1;rounded=0;edgeStyle=orthogonalEdgeStyle;exitX=0.527;exitY=-0.027;exitDx=0;exitDy=0;exitPerimeter=0;entryX=0.425;entryY=1.047;entryDx=0;entryDy=0;entryPerimeter=0;" parent="1" source="UL4YKMBXZopJeCdpC2au-50" target="UL4YKMBXZopJeCdpC2au-45" edge="1">
          <mxGeometry width="160" relative="1" as="geometry">
            <mxPoint x="3050" y="490" as="sourcePoint" />
            <mxPoint x="3210" y="490" as="targetPoint" />
            <Array as="points">
              <mxPoint x="3280" y="558" />
              <mxPoint x="3280" y="500" />
              <mxPoint x="3119" y="500" />
              <mxPoint x="3119" y="467" />
            </Array>
          </mxGeometry>
        </mxCell>
        <mxCell id="UL4YKMBXZopJeCdpC2au-59" value="ServerManager" style="swimlane;fontStyle=1;align=center;verticalAlign=top;childLayout=stackLayout;horizontal=1;startSize=26;horizontalStack=0;resizeParent=1;resizeParentMax=0;resizeLast=0;collapsible=1;marginBottom=0;" parent="1" vertex="1">
          <mxGeometry x="1030" y="44" width="190" height="74" as="geometry" />
        </mxCell>
        <mxCell id="UL4YKMBXZopJeCdpC2au-61" value="" style="line;strokeWidth=1;fillColor=none;align=left;verticalAlign=middle;spacingTop=-1;spacingLeft=3;spacingRight=3;rotatable=0;labelPosition=right;points=[];portConstraint=eastwest;" parent="UL4YKMBXZopJeCdpC2au-59" vertex="1">
          <mxGeometry y="26" width="190" height="8" as="geometry" />
        </mxCell>
        <mxCell id="UL4YKMBXZopJeCdpC2au-62" value="+ connectDataServer():void&#xa;+ connectURLServer():void" style="text;strokeColor=none;fillColor=none;align=left;verticalAlign=top;spacingLeft=4;spacingRight=4;overflow=hidden;rotatable=0;points=[[0,0.5],[1,0.5]];portConstraint=eastwest;" parent="UL4YKMBXZopJeCdpC2au-59" vertex="1">
          <mxGeometry y="34" width="190" height="40" as="geometry" />
        </mxCell>
        <mxCell id="UL4YKMBXZopJeCdpC2au-65" value="" style="endArrow=open;endFill=1;endSize=12;html=1;rounded=0;edgeStyle=orthogonalEdgeStyle;exitX=0.5;exitY=0;exitDx=0;exitDy=0;" parent="1" source="VXNcRWfN4zNZ4ETa913i-1" edge="1">
          <mxGeometry width="160" relative="1" as="geometry">
            <mxPoint x="1020" y="390" as="sourcePoint" />
            <mxPoint x="1090" y="120" as="targetPoint" />
            <Array as="points">
              <mxPoint x="960" y="310" />
              <mxPoint x="1090" y="310" />
              <mxPoint x="1090" y="130" />
            </Array>
          </mxGeometry>
        </mxCell>
        <mxCell id="UL4YKMBXZopJeCdpC2au-66" value="" style="endArrow=open;endFill=1;endSize=12;html=1;rounded=0;edgeStyle=orthogonalEdgeStyle;" parent="1" edge="1">
          <mxGeometry width="160" relative="1" as="geometry">
            <mxPoint x="540" y="369" as="sourcePoint" />
            <mxPoint x="1090" y="120" as="targetPoint" />
            <Array as="points">
              <mxPoint x="540" y="310" />
              <mxPoint x="1090" y="310" />
              <mxPoint x="1090" y="132" />
            </Array>
          </mxGeometry>
        </mxCell>
        <mxCell id="UL4YKMBXZopJeCdpC2au-67" value="" style="endArrow=open;endFill=1;endSize=12;html=1;rounded=0;edgeStyle=orthogonalEdgeStyle;exitX=0.468;exitY=0.02;exitDx=0;exitDy=0;exitPerimeter=0;" parent="1" source="UL4YKMBXZopJeCdpC2au-42" edge="1">
          <mxGeometry width="160" relative="1" as="geometry">
            <mxPoint x="1110" y="340" as="sourcePoint" />
            <mxPoint x="1150" y="120" as="targetPoint" />
            <Array as="points">
              <mxPoint x="3128" y="372" />
              <mxPoint x="3128" y="320" />
              <mxPoint x="1150" y="320" />
            </Array>
          </mxGeometry>
        </mxCell>
        <mxCell id="UL4YKMBXZopJeCdpC2au-68" value="SEOAnalyser" style="swimlane;fontStyle=1;align=center;verticalAlign=top;childLayout=stackLayout;horizontal=1;startSize=26;horizontalStack=0;resizeParent=1;resizeParentMax=0;resizeLast=0;collapsible=1;marginBottom=0;" parent="1" vertex="1">
          <mxGeometry x="1300" y="390" width="290" height="86" as="geometry" />
        </mxCell>
        <mxCell id="UL4YKMBXZopJeCdpC2au-69" value="+ seoAspectsConfiguration: SEOAspect" style="text;strokeColor=none;fillColor=none;align=left;verticalAlign=top;spacingLeft=4;spacingRight=4;overflow=hidden;rotatable=0;points=[[0,0.5],[1,0.5]];portConstraint=eastwest;" parent="UL4YKMBXZopJeCdpC2au-68" vertex="1">
          <mxGeometry y="26" width="290" height="26" as="geometry" />
        </mxCell>
        <mxCell id="UL4YKMBXZopJeCdpC2au-70" value="" style="line;strokeWidth=1;fillColor=none;align=left;verticalAlign=middle;spacingTop=-1;spacingLeft=3;spacingRight=3;rotatable=0;labelPosition=right;points=[];portConstraint=eastwest;" parent="UL4YKMBXZopJeCdpC2au-68" vertex="1">
          <mxGeometry y="52" width="290" height="8" as="geometry" />
        </mxCell>
        <mxCell id="UL4YKMBXZopJeCdpC2au-71" value="+ analyseDocument(doc DocumentData): void" style="text;strokeColor=none;fillColor=none;align=left;verticalAlign=top;spacingLeft=4;spacingRight=4;overflow=hidden;rotatable=0;points=[[0,0.5],[1,0.5]];portConstraint=eastwest;" parent="UL4YKMBXZopJeCdpC2au-68" vertex="1">
          <mxGeometry y="60" width="290" height="26" as="geometry" />
        </mxCell>
        <mxCell id="vnPngC09RosFCxPqreI9-1" value="AnchorTextUsage" style="swimlane;fontStyle=1;align=center;verticalAlign=top;childLayout=stackLayout;horizontal=1;startSize=26;horizontalStack=0;resizeParent=1;resizeParentMax=0;resizeLast=0;collapsible=1;marginBottom=0;" parent="1" vertex="1">
          <mxGeometry x="2920" y="1366" width="160" height="34" as="geometry" />
        </mxCell>
        <mxCell id="vnPngC09RosFCxPqreI9-3" value="" style="line;strokeWidth=1;fillColor=none;align=left;verticalAlign=middle;spacingTop=-1;spacingLeft=3;spacingRight=3;rotatable=0;labelPosition=right;points=[];portConstraint=eastwest;" parent="vnPngC09RosFCxPqreI9-1" vertex="1">
          <mxGeometry y="26" width="160" height="8" as="geometry" />
        </mxCell>
        <mxCell id="ulZ0jbCKSlaguCblbPYP-53" value="Extends" style="endArrow=block;endSize=16;endFill=0;html=1;exitX=0.5;exitY=0;exitDx=0;exitDy=0;" parent="vnPngC09RosFCxPqreI9-1" source="vnPngC09RosFCxPqreI9-1" edge="1">
          <mxGeometry width="160" relative="1" as="geometry">
            <mxPoint x="80" y="-6" as="sourcePoint" />
            <mxPoint x="-1160" y="-83" as="targetPoint" />
            <Array as="points">
              <mxPoint x="80" y="-46" />
              <mxPoint x="-1160" y="-46" />
            </Array>
          </mxGeometry>
        </mxCell>
        <mxCell id="vnPngC09RosFCxPqreI9-5" value="URLResover" style="swimlane;fontStyle=1;align=center;verticalAlign=top;childLayout=stackLayout;horizontal=1;startSize=26;horizontalStack=0;resizeParent=1;resizeParentMax=0;resizeLast=0;collapsible=1;marginBottom=0;" parent="1" vertex="1">
          <mxGeometry x="710" y="40" width="260" height="90" as="geometry" />
        </mxCell>
        <mxCell id="nHTIsOpt5-FmUogmospr-10" value="+ urlServerConnection: ServerManager" style="text;strokeColor=none;fillColor=none;align=left;verticalAlign=top;spacingLeft=4;spacingRight=4;overflow=hidden;rotatable=0;points=[[0,0.5],[1,0.5]];portConstraint=eastwest;" vertex="1" parent="vnPngC09RosFCxPqreI9-5">
          <mxGeometry y="26" width="260" height="26" as="geometry" />
        </mxCell>
        <mxCell id="nHTIsOpt5-FmUogmospr-11" value="" style="line;strokeWidth=1;fillColor=none;align=left;verticalAlign=middle;spacingTop=-1;spacingLeft=3;spacingRight=3;rotatable=0;labelPosition=right;points=[];portConstraint=eastwest;" vertex="1" parent="vnPngC09RosFCxPqreI9-5">
          <mxGeometry y="52" width="260" height="8" as="geometry" />
        </mxCell>
        <mxCell id="vnPngC09RosFCxPqreI9-8" value="+ resolveURLS(index: DocumentIndex): void" style="text;strokeColor=none;fillColor=none;align=left;verticalAlign=top;spacingLeft=4;spacingRight=4;overflow=hidden;rotatable=0;points=[[0,0.5],[1,0.5]];portConstraint=eastwest;" parent="vnPngC09RosFCxPqreI9-5" vertex="1">
          <mxGeometry y="60" width="260" height="30" as="geometry" />
        </mxCell>
        <mxCell id="vnPngC09RosFCxPqreI9-9" value="URLServer" style="swimlane;fontStyle=1;align=center;verticalAlign=top;childLayout=stackLayout;horizontal=1;startSize=26;horizontalStack=0;resizeParent=1;resizeParentMax=0;resizeLast=0;collapsible=1;marginBottom=0;" parent="1" vertex="1">
          <mxGeometry x="840" y="-140" width="160" height="86" as="geometry" />
        </mxCell>
        <mxCell id="vnPngC09RosFCxPqreI9-10" value="+ field: type" style="text;strokeColor=none;fillColor=none;align=left;verticalAlign=top;spacingLeft=4;spacingRight=4;overflow=hidden;rotatable=0;points=[[0,0.5],[1,0.5]];portConstraint=eastwest;" parent="vnPngC09RosFCxPqreI9-9" vertex="1">
          <mxGeometry y="26" width="160" height="26" as="geometry" />
        </mxCell>
        <mxCell id="vnPngC09RosFCxPqreI9-11" value="" style="line;strokeWidth=1;fillColor=none;align=left;verticalAlign=middle;spacingTop=-1;spacingLeft=3;spacingRight=3;rotatable=0;labelPosition=right;points=[];portConstraint=eastwest;" parent="vnPngC09RosFCxPqreI9-9" vertex="1">
          <mxGeometry y="52" width="160" height="8" as="geometry" />
        </mxCell>
        <mxCell id="vnPngC09RosFCxPqreI9-12" value="+ method(type): type" style="text;strokeColor=none;fillColor=none;align=left;verticalAlign=top;spacingLeft=4;spacingRight=4;overflow=hidden;rotatable=0;points=[[0,0.5],[1,0.5]];portConstraint=eastwest;" parent="vnPngC09RosFCxPqreI9-9" vertex="1">
          <mxGeometry y="60" width="160" height="26" as="geometry" />
        </mxCell>
        <mxCell id="vnPngC09RosFCxPqreI9-13" value="DataServer" style="swimlane;fontStyle=1;align=center;verticalAlign=top;childLayout=stackLayout;horizontal=1;startSize=26;horizontalStack=0;resizeParent=1;resizeParentMax=0;resizeLast=0;collapsible=1;marginBottom=0;" parent="1" vertex="1">
          <mxGeometry x="1150" y="-140" width="160" height="86" as="geometry" />
        </mxCell>
        <mxCell id="vnPngC09RosFCxPqreI9-14" value="+ field: type" style="text;strokeColor=none;fillColor=none;align=left;verticalAlign=top;spacingLeft=4;spacingRight=4;overflow=hidden;rotatable=0;points=[[0,0.5],[1,0.5]];portConstraint=eastwest;" parent="vnPngC09RosFCxPqreI9-13" vertex="1">
          <mxGeometry y="26" width="160" height="26" as="geometry" />
        </mxCell>
        <mxCell id="vnPngC09RosFCxPqreI9-15" value="" style="line;strokeWidth=1;fillColor=none;align=left;verticalAlign=middle;spacingTop=-1;spacingLeft=3;spacingRight=3;rotatable=0;labelPosition=right;points=[];portConstraint=eastwest;" parent="vnPngC09RosFCxPqreI9-13" vertex="1">
          <mxGeometry y="52" width="160" height="8" as="geometry" />
        </mxCell>
        <mxCell id="vnPngC09RosFCxPqreI9-16" value="+ method(type): type" style="text;strokeColor=none;fillColor=none;align=left;verticalAlign=top;spacingLeft=4;spacingRight=4;overflow=hidden;rotatable=0;points=[[0,0.5],[1,0.5]];portConstraint=eastwest;" parent="vnPngC09RosFCxPqreI9-13" vertex="1">
          <mxGeometry y="60" width="160" height="26" as="geometry" />
        </mxCell>
        <mxCell id="vnPngC09RosFCxPqreI9-19" value="" style="endArrow=none;html=1;edgeStyle=orthogonalEdgeStyle;rounded=0;exitX=0.573;exitY=1.011;exitDx=0;exitDy=0;exitPerimeter=0;entryX=0.5;entryY=0;entryDx=0;entryDy=0;" parent="1" source="vnPngC09RosFCxPqreI9-8" target="VXNcRWfN4zNZ4ETa913i-1" edge="1">
          <mxGeometry relative="1" as="geometry">
            <mxPoint x="860" y="380" as="sourcePoint" />
            <mxPoint x="1020" y="380" as="targetPoint" />
            <Array as="points">
              <mxPoint x="849" y="280" />
              <mxPoint x="960" y="280" />
            </Array>
          </mxGeometry>
        </mxCell>
        <mxCell id="vnPngC09RosFCxPqreI9-22" value="" style="endArrow=open;endFill=1;endSize=12;html=1;rounded=0;edgeStyle=orthogonalEdgeStyle;entryX=0;entryY=0.5;entryDx=0;entryDy=0;" parent="1" edge="1">
          <mxGeometry width="160" relative="1" as="geometry">
            <mxPoint x="975" y="83" as="sourcePoint" />
            <mxPoint x="1030" y="83" as="targetPoint" />
            <Array as="points">
              <mxPoint x="975" y="84" />
              <mxPoint x="970" y="84" />
              <mxPoint x="970" y="83" />
            </Array>
          </mxGeometry>
        </mxCell>
        <mxCell id="xpTjOEdWHdF4yTKwdctW-21" value="Lexicon" style="swimlane;fontStyle=1;align=center;verticalAlign=top;childLayout=stackLayout;horizontal=1;startSize=26;horizontalStack=0;resizeParent=1;resizeParentMax=0;resizeLast=0;collapsible=1;marginBottom=0;hachureGap=4;pointerEvents=0;" parent="1" vertex="1">
          <mxGeometry x="2290" y="-94" width="200" height="52" as="geometry" />
        </mxCell>
        <mxCell id="xpTjOEdWHdF4yTKwdctW-22" value="+ instance[0..*]: LexiconMap" style="text;strokeColor=none;fillColor=none;align=left;verticalAlign=top;spacingLeft=4;spacingRight=4;overflow=hidden;rotatable=0;points=[[0,0.5],[1,0.5]];portConstraint=eastwest;" parent="xpTjOEdWHdF4yTKwdctW-21" vertex="1">
          <mxGeometry y="26" width="200" height="26" as="geometry" />
        </mxCell>
        <mxCell id="xpTjOEdWHdF4yTKwdctW-25" value="LexiconManager" style="swimlane;fontStyle=1;align=center;verticalAlign=top;childLayout=stackLayout;horizontal=1;startSize=26;horizontalStack=0;resizeParent=1;resizeParentMax=0;resizeLast=0;collapsible=1;marginBottom=0;" parent="1" vertex="1">
          <mxGeometry x="2310" y="80" width="260" height="110" as="geometry" />
        </mxCell>
        <mxCell id="xpTjOEdWHdF4yTKwdctW-26" value="- lexicon: Lexicon" style="text;strokeColor=none;fillColor=none;align=left;verticalAlign=top;spacingLeft=4;spacingRight=4;overflow=hidden;rotatable=0;points=[[0,0.5],[1,0.5]];portConstraint=eastwest;" parent="xpTjOEdWHdF4yTKwdctW-25" vertex="1">
          <mxGeometry y="26" width="260" height="26" as="geometry" />
        </mxCell>
        <mxCell id="xpTjOEdWHdF4yTKwdctW-27" value="" style="line;strokeWidth=1;fillColor=none;align=left;verticalAlign=middle;spacingTop=-1;spacingLeft=3;spacingRight=3;rotatable=0;labelPosition=right;points=[];portConstraint=eastwest;" parent="xpTjOEdWHdF4yTKwdctW-25" vertex="1">
          <mxGeometry y="52" width="260" height="8" as="geometry" />
        </mxCell>
        <mxCell id="xpTjOEdWHdF4yTKwdctW-28" value="+ getLexicon(): Lexicon&#xa;+ updateLexicon() : void&#xa;" style="text;strokeColor=none;fillColor=none;align=left;verticalAlign=top;spacingLeft=4;spacingRight=4;overflow=hidden;rotatable=0;points=[[0,0.5],[1,0.5]];portConstraint=eastwest;" parent="xpTjOEdWHdF4yTKwdctW-25" vertex="1">
          <mxGeometry y="60" width="260" height="50" as="geometry" />
        </mxCell>
        <mxCell id="xpTjOEdWHdF4yTKwdctW-37" value="" style="endArrow=open;endFill=1;endSize=12;html=1;rounded=0;edgeStyle=orthogonalEdgeStyle;exitX=0.002;exitY=0.914;exitDx=0;exitDy=0;exitPerimeter=0;" parent="1" source="xpTjOEdWHdF4yTKwdctW-26" edge="1">
          <mxGeometry width="160" relative="1" as="geometry">
            <mxPoint x="2120" y="240" as="sourcePoint" />
            <mxPoint x="1188" y="119" as="targetPoint" />
            <Array as="points">
              <mxPoint x="2311" y="160" />
              <mxPoint x="1188" y="160" />
            </Array>
          </mxGeometry>
        </mxCell>
        <mxCell id="xpTjOEdWHdF4yTKwdctW-38" value="" style="endArrow=diamondThin;endFill=1;endSize=24;html=1;rounded=0;edgeStyle=orthogonalEdgeStyle;entryX=0.471;entryY=0;entryDx=0;entryDy=0;entryPerimeter=0;" parent="1" source="xpTjOEdWHdF4yTKwdctW-22" target="xpTjOEdWHdF4yTKwdctW-25" edge="1">
          <mxGeometry width="160" relative="1" as="geometry">
            <mxPoint x="2432" y="-38" as="sourcePoint" />
            <mxPoint x="2390" y="70" as="targetPoint" />
            <Array as="points">
              <mxPoint x="2432" y="-20" />
              <mxPoint x="2432" y="-20" />
            </Array>
          </mxGeometry>
        </mxCell>
        <mxCell id="xpTjOEdWHdF4yTKwdctW-39" value="" style="endArrow=open;endFill=1;endSize=12;html=1;rounded=0;edgeStyle=orthogonalEdgeStyle;entryX=1;entryY=0.5;entryDx=0;entryDy=0;exitX=0.466;exitY=-0.028;exitDx=0;exitDy=0;exitPerimeter=0;" parent="1" source="UL4YKMBXZopJeCdpC2au-42" target="xpTjOEdWHdF4yTKwdctW-28" edge="1">
          <mxGeometry width="160" relative="1" as="geometry">
            <mxPoint x="2850" y="410" as="sourcePoint" />
            <mxPoint x="3010" y="410" as="targetPoint" />
          </mxGeometry>
        </mxCell>
        <mxCell id="X9t2nn5iT1wmEAKBCxQw-26" value="ForwardIndex" style="swimlane;fontStyle=3;align=center;verticalAlign=top;childLayout=stackLayout;horizontal=1;startSize=26;horizontalStack=0;resizeParent=1;resizeParentMax=0;resizeLast=0;collapsible=1;marginBottom=0;" parent="1" vertex="1" collapsed="1">
          <mxGeometry x="450" y="810" width="110" height="26" as="geometry">
            <mxRectangle x="450" y="810" width="160" height="86" as="alternateBounds" />
          </mxGeometry>
        </mxCell>
        <mxCell id="X9t2nn5iT1wmEAKBCxQw-27" value="+ field: type" style="text;strokeColor=none;fillColor=none;align=left;verticalAlign=top;spacingLeft=4;spacingRight=4;overflow=hidden;rotatable=0;points=[[0,0.5],[1,0.5]];portConstraint=eastwest;" parent="X9t2nn5iT1wmEAKBCxQw-26" vertex="1">
          <mxGeometry y="26" width="110" height="26" as="geometry" />
        </mxCell>
        <mxCell id="X9t2nn5iT1wmEAKBCxQw-28" value="" style="line;strokeWidth=1;fillColor=none;align=left;verticalAlign=middle;spacingTop=-1;spacingLeft=3;spacingRight=3;rotatable=0;labelPosition=right;points=[];portConstraint=eastwest;" parent="X9t2nn5iT1wmEAKBCxQw-26" vertex="1">
          <mxGeometry y="52" width="110" height="8" as="geometry" />
        </mxCell>
        <mxCell id="X9t2nn5iT1wmEAKBCxQw-29" value="+ method(type): type" style="text;strokeColor=none;fillColor=none;align=left;verticalAlign=top;spacingLeft=4;spacingRight=4;overflow=hidden;rotatable=0;points=[[0,0.5],[1,0.5]];portConstraint=eastwest;" parent="X9t2nn5iT1wmEAKBCxQw-26" vertex="1">
          <mxGeometry y="60" width="110" height="26" as="geometry" />
        </mxCell>
        <mxCell id="VXNcRWfN4zNZ4ETa913i-9" value="DocumentData" style="swimlane;fontStyle=1;align=center;verticalAlign=top;childLayout=stackLayout;horizontal=1;startSize=26;horizontalStack=0;resizeParent=1;resizeParentMax=0;resizeLast=0;collapsible=1;marginBottom=0;hachureGap=4;pointerEvents=0;" parent="1" vertex="1">
          <mxGeometry x="390" y="1344" width="230" height="118" as="geometry" />
        </mxCell>
        <mxCell id="VXNcRWfN4zNZ4ETa913i-10" value="+ title: String&#xa;- wordIdList: Int[0..*]&#xa;+ hitList: Hit[0..*]&#xa;+ index: DocumentIndex" style="text;strokeColor=none;fillColor=none;align=left;verticalAlign=top;spacingLeft=4;spacingRight=4;overflow=hidden;rotatable=0;points=[[0,0.5],[1,0.5]];portConstraint=eastwest;" parent="VXNcRWfN4zNZ4ETa913i-9" vertex="1">
          <mxGeometry y="26" width="230" height="84" as="geometry" />
        </mxCell>
        <mxCell id="VXNcRWfN4zNZ4ETa913i-11" value="" style="line;strokeWidth=1;fillColor=none;align=left;verticalAlign=middle;spacingTop=-1;spacingLeft=3;spacingRight=3;rotatable=0;labelPosition=right;points=[];portConstraint=eastwest;" parent="VXNcRWfN4zNZ4ETa913i-9" vertex="1">
          <mxGeometry y="110" width="230" height="8" as="geometry" />
        </mxCell>
        <mxCell id="X9t2nn5iT1wmEAKBCxQw-30" value="InvertedIndex" style="swimlane;fontStyle=3;align=center;verticalAlign=top;childLayout=stackLayout;horizontal=1;startSize=26;horizontalStack=0;resizeParent=1;resizeParentMax=0;resizeLast=0;collapsible=1;marginBottom=0;" parent="1" vertex="1" collapsed="1">
          <mxGeometry x="831.6800000000001" y="810" width="110" height="26" as="geometry">
            <mxRectangle x="831.6800000000001" y="810" width="160" height="86" as="alternateBounds" />
          </mxGeometry>
        </mxCell>
        <mxCell id="X9t2nn5iT1wmEAKBCxQw-31" value="+ field: type" style="text;strokeColor=none;fillColor=none;align=left;verticalAlign=top;spacingLeft=4;spacingRight=4;overflow=hidden;rotatable=0;points=[[0,0.5],[1,0.5]];portConstraint=eastwest;" parent="X9t2nn5iT1wmEAKBCxQw-30" vertex="1">
          <mxGeometry y="26" width="110" height="26" as="geometry" />
        </mxCell>
        <mxCell id="X9t2nn5iT1wmEAKBCxQw-32" value="" style="line;strokeWidth=1;fillColor=none;align=left;verticalAlign=middle;spacingTop=-1;spacingLeft=3;spacingRight=3;rotatable=0;labelPosition=right;points=[];portConstraint=eastwest;" parent="X9t2nn5iT1wmEAKBCxQw-30" vertex="1">
          <mxGeometry y="52" width="110" height="8" as="geometry" />
        </mxCell>
        <mxCell id="X9t2nn5iT1wmEAKBCxQw-33" value="+ method(type): type" style="text;strokeColor=none;fillColor=none;align=left;verticalAlign=top;spacingLeft=4;spacingRight=4;overflow=hidden;rotatable=0;points=[[0,0.5],[1,0.5]];portConstraint=eastwest;" parent="X9t2nn5iT1wmEAKBCxQw-30" vertex="1">
          <mxGeometry y="60" width="110" height="26" as="geometry" />
        </mxCell>
        <mxCell id="X9t2nn5iT1wmEAKBCxQw-34" value="WordIndex" style="swimlane;fontStyle=1;align=center;verticalAlign=top;childLayout=stackLayout;horizontal=1;startSize=26;horizontalStack=0;resizeParent=1;resizeParentMax=0;resizeLast=0;collapsible=1;marginBottom=0;" parent="1" vertex="1">
          <mxGeometry x="711.6800000000001" y="1000" width="160" height="128" as="geometry" />
        </mxCell>
        <mxCell id="X9t2nn5iT1wmEAKBCxQw-35" value="+ wordId: Int&#xa;+ hitsInfo: HitsInfo[0..*]" style="text;strokeColor=none;fillColor=none;align=left;verticalAlign=top;spacingLeft=4;spacingRight=4;overflow=hidden;rotatable=0;points=[[0,0.5],[1,0.5]];portConstraint=eastwest;" parent="X9t2nn5iT1wmEAKBCxQw-34" vertex="1">
          <mxGeometry y="26" width="160" height="44" as="geometry" />
        </mxCell>
        <mxCell id="X9t2nn5iT1wmEAKBCxQw-36" value="" style="line;strokeWidth=1;fillColor=none;align=left;verticalAlign=middle;spacingTop=-1;spacingLeft=3;spacingRight=3;rotatable=0;labelPosition=right;points=[];portConstraint=eastwest;" parent="X9t2nn5iT1wmEAKBCxQw-34" vertex="1">
          <mxGeometry y="70" width="160" height="58" as="geometry" />
        </mxCell>
        <mxCell id="X9t2nn5iT1wmEAKBCxQw-38" value="ImageIndex" style="swimlane;fontStyle=1;align=center;verticalAlign=top;childLayout=stackLayout;horizontal=1;startSize=26;horizontalStack=0;resizeParent=1;resizeParentMax=0;resizeLast=0;collapsible=1;marginBottom=0;" parent="1" vertex="1">
          <mxGeometry x="961.6800000000001" y="1004" width="160" height="34" as="geometry" />
        </mxCell>
        <mxCell id="X9t2nn5iT1wmEAKBCxQw-40" value="" style="line;strokeWidth=1;fillColor=none;align=left;verticalAlign=middle;spacingTop=-1;spacingLeft=3;spacingRight=3;rotatable=0;labelPosition=right;points=[];portConstraint=eastwest;" parent="X9t2nn5iT1wmEAKBCxQw-38" vertex="1">
          <mxGeometry y="26" width="160" height="8" as="geometry" />
        </mxCell>
        <mxCell id="X9t2nn5iT1wmEAKBCxQw-49" value="" style="endArrow=block;endSize=16;endFill=0;html=1;rounded=0;edgeStyle=orthogonalEdgeStyle;entryX=0.446;entryY=1.022;entryDx=0;entryDy=0;entryPerimeter=0;exitX=0.438;exitY=0;exitDx=0;exitDy=0;exitPerimeter=0;" parent="1" source="X9t2nn5iT1wmEAKBCxQw-34" target="X9t2nn5iT1wmEAKBCxQw-33" edge="1">
          <mxGeometry x="0.1428" y="-22" width="160" relative="1" as="geometry">
            <mxPoint x="701.6800000000001" y="916" as="sourcePoint" />
            <mxPoint x="861.6800000000001" y="916" as="targetPoint" />
            <mxPoint as="offset" />
          </mxGeometry>
        </mxCell>
        <mxCell id="X9t2nn5iT1wmEAKBCxQw-50" value="" style="endArrow=block;endSize=16;endFill=0;html=1;rounded=0;edgeStyle=orthogonalEdgeStyle;exitX=0.5;exitY=0;exitDx=0;exitDy=0;entryX=0.434;entryY=1.097;entryDx=0;entryDy=0;entryPerimeter=0;" parent="1" source="X9t2nn5iT1wmEAKBCxQw-38" target="X9t2nn5iT1wmEAKBCxQw-30" edge="1">
          <mxGeometry width="160" relative="1" as="geometry">
            <mxPoint x="791.1200000000003" y="1000" as="sourcePoint" />
            <mxPoint x="880" y="890" as="targetPoint" />
            <Array as="points">
              <mxPoint x="1042" y="920" />
              <mxPoint x="879" y="920" />
            </Array>
          </mxGeometry>
        </mxCell>
        <mxCell id="X9t2nn5iT1wmEAKBCxQw-51" value="HitsInfo" style="swimlane;fontStyle=1;align=center;verticalAlign=top;childLayout=stackLayout;horizontal=1;startSize=26;horizontalStack=0;resizeParent=1;resizeParentMax=0;resizeLast=0;collapsible=1;marginBottom=0;" parent="1" vertex="1">
          <mxGeometry x="690" y="1200" width="160" height="118" as="geometry" />
        </mxCell>
        <mxCell id="X9t2nn5iT1wmEAKBCxQw-52" value="+ docId: Int&#xa;+ hitList: Hit[0..*]&#xa;" style="text;strokeColor=none;fillColor=none;align=left;verticalAlign=top;spacingLeft=4;spacingRight=4;overflow=hidden;rotatable=0;points=[[0,0.5],[1,0.5]];portConstraint=eastwest;" parent="X9t2nn5iT1wmEAKBCxQw-51" vertex="1">
          <mxGeometry y="26" width="160" height="44" as="geometry" />
        </mxCell>
        <mxCell id="X9t2nn5iT1wmEAKBCxQw-53" value="" style="line;strokeWidth=1;fillColor=none;align=left;verticalAlign=middle;spacingTop=-1;spacingLeft=3;spacingRight=3;rotatable=0;labelPosition=right;points=[];portConstraint=eastwest;" parent="X9t2nn5iT1wmEAKBCxQw-51" vertex="1">
          <mxGeometry y="70" width="160" height="8" as="geometry" />
        </mxCell>
        <mxCell id="X9t2nn5iT1wmEAKBCxQw-54" value="+ method(type): type" style="text;strokeColor=none;fillColor=none;align=left;verticalAlign=top;spacingLeft=4;spacingRight=4;overflow=hidden;rotatable=0;points=[[0,0.5],[1,0.5]];portConstraint=eastwest;" parent="X9t2nn5iT1wmEAKBCxQw-51" vertex="1">
          <mxGeometry y="78" width="160" height="40" as="geometry" />
        </mxCell>
        <mxCell id="X9t2nn5iT1wmEAKBCxQw-59" value="" style="endArrow=block;endSize=16;endFill=0;html=1;rounded=0;edgeStyle=orthogonalEdgeStyle;exitX=0.5;exitY=0;exitDx=0;exitDy=0;entryX=0.5;entryY=1;entryDx=0;entryDy=0;" parent="1" source="X9t2nn5iT1wmEAKBCxQw-26" target="UL4YKMBXZopJeCdpC2au-22" edge="1">
          <mxGeometry x="0.0053" width="160" relative="1" as="geometry">
            <mxPoint x="570.0000000000002" y="800.71" as="sourcePoint" />
            <mxPoint x="720" y="660" as="targetPoint" />
            <Array as="points">
              <mxPoint x="530" y="740" />
              <mxPoint x="720" y="740" />
            </Array>
            <mxPoint as="offset" />
          </mxGeometry>
        </mxCell>
        <mxCell id="X9t2nn5iT1wmEAKBCxQw-60" value="" style="endArrow=block;endSize=16;endFill=0;html=1;rounded=0;edgeStyle=orthogonalEdgeStyle;exitX=0.5;exitY=0;exitDx=0;exitDy=0;" parent="1" source="X9t2nn5iT1wmEAKBCxQw-30" edge="1">
          <mxGeometry width="160" relative="1" as="geometry">
            <mxPoint x="570" y="836" as="sourcePoint" />
            <mxPoint x="720" y="644" as="targetPoint" />
            <Array as="points">
              <mxPoint x="912" y="740" />
              <mxPoint x="720" y="740" />
            </Array>
          </mxGeometry>
        </mxCell>
        <mxCell id="X9t2nn5iT1wmEAKBCxQw-61" value="" style="endArrow=block;endSize=16;endFill=0;html=1;rounded=0;edgeStyle=orthogonalEdgeStyle;exitX=0.563;exitY=0;exitDx=0;exitDy=0;exitPerimeter=0;entryX=0.661;entryY=0.88;entryDx=0;entryDy=0;entryPerimeter=0;" parent="1" source="VXNcRWfN4zNZ4ETa913i-5" target="X9t2nn5iT1wmEAKBCxQw-26" edge="1">
          <mxGeometry width="160" relative="1" as="geometry">
            <mxPoint x="400" y="1000" as="sourcePoint" />
            <mxPoint x="523" y="840" as="targetPoint" />
            <Array as="points">
              <mxPoint x="523" y="1006" />
            </Array>
          </mxGeometry>
        </mxCell>
        <mxCell id="X9t2nn5iT1wmEAKBCxQw-62" value="Sorter" style="swimlane;fontStyle=1;align=center;verticalAlign=top;childLayout=stackLayout;horizontal=1;startSize=26;horizontalStack=0;resizeParent=1;resizeParentMax=0;resizeLast=0;collapsible=1;marginBottom=0;" parent="1" vertex="1">
          <mxGeometry x="1055" y="670" width="350" height="60" as="geometry" />
        </mxCell>
        <mxCell id="X9t2nn5iT1wmEAKBCxQw-64" value="" style="line;strokeWidth=1;fillColor=none;align=left;verticalAlign=middle;spacingTop=-1;spacingLeft=3;spacingRight=3;rotatable=0;labelPosition=right;points=[];portConstraint=eastwest;" parent="X9t2nn5iT1wmEAKBCxQw-62" vertex="1">
          <mxGeometry y="26" width="350" height="8" as="geometry" />
        </mxCell>
        <mxCell id="X9t2nn5iT1wmEAKBCxQw-65" value="+ updateInvertedIndex(forwardIndex: ForwardIndex): void" style="text;strokeColor=none;fillColor=none;align=left;verticalAlign=top;spacingLeft=4;spacingRight=4;overflow=hidden;rotatable=0;points=[[0,0.5],[1,0.5]];portConstraint=eastwest;" parent="X9t2nn5iT1wmEAKBCxQw-62" vertex="1">
          <mxGeometry y="34" width="350" height="26" as="geometry" />
        </mxCell>
        <mxCell id="X9t2nn5iT1wmEAKBCxQw-68" value="" style="endArrow=open;endFill=1;endSize=12;html=1;rounded=0;edgeStyle=orthogonalEdgeStyle;exitX=0.5;exitY=1.002;exitDx=0;exitDy=0;exitPerimeter=0;entryX=0.479;entryY=-0.019;entryDx=0;entryDy=0;entryPerimeter=0;" parent="1" source="VXNcRWfN4zNZ4ETa913i-4" target="X9t2nn5iT1wmEAKBCxQw-62" edge="1">
          <mxGeometry width="160" relative="1" as="geometry">
            <mxPoint x="1050" y="630" as="sourcePoint" />
            <mxPoint x="1210" y="630" as="targetPoint" />
          </mxGeometry>
        </mxCell>
        <mxCell id="X9t2nn5iT1wmEAKBCxQw-69" value="" style="endArrow=open;endFill=1;endSize=12;html=1;rounded=0;edgeStyle=orthogonalEdgeStyle;entryX=1;entryY=0.5;entryDx=0;entryDy=0;exitX=-0.014;exitY=0.253;exitDx=0;exitDy=0;exitPerimeter=0;" parent="1" source="UL4YKMBXZopJeCdpC2au-45" target="X9t2nn5iT1wmEAKBCxQw-31" edge="1">
          <mxGeometry width="160" relative="1" as="geometry">
            <mxPoint x="2000" y="470" as="sourcePoint" />
            <mxPoint x="1450" y="680" as="targetPoint" />
          </mxGeometry>
        </mxCell>
        <mxCell id="X9t2nn5iT1wmEAKBCxQw-74" value="Validator" style="swimlane;fontStyle=1;align=center;verticalAlign=top;childLayout=stackLayout;horizontal=1;startSize=26;horizontalStack=0;resizeParent=1;resizeParentMax=0;resizeLast=0;collapsible=1;marginBottom=0;" parent="1" vertex="1">
          <mxGeometry x="3400" y="271" width="220" height="86" as="geometry" />
        </mxCell>
        <mxCell id="X9t2nn5iT1wmEAKBCxQw-75" value="+ field: type" style="text;strokeColor=none;fillColor=none;align=left;verticalAlign=top;spacingLeft=4;spacingRight=4;overflow=hidden;rotatable=0;points=[[0,0.5],[1,0.5]];portConstraint=eastwest;" parent="X9t2nn5iT1wmEAKBCxQw-74" vertex="1">
          <mxGeometry y="26" width="220" height="26" as="geometry" />
        </mxCell>
        <mxCell id="X9t2nn5iT1wmEAKBCxQw-76" value="" style="line;strokeWidth=1;fillColor=none;align=left;verticalAlign=middle;spacingTop=-1;spacingLeft=3;spacingRight=3;rotatable=0;labelPosition=right;points=[];portConstraint=eastwest;" parent="X9t2nn5iT1wmEAKBCxQw-74" vertex="1">
          <mxGeometry y="52" width="220" height="8" as="geometry" />
        </mxCell>
        <mxCell id="X9t2nn5iT1wmEAKBCxQw-77" value="+ validateQuery(query: Query): type" style="text;strokeColor=none;fillColor=none;align=left;verticalAlign=top;spacingLeft=4;spacingRight=4;overflow=hidden;rotatable=0;points=[[0,0.5],[1,0.5]];portConstraint=eastwest;" parent="X9t2nn5iT1wmEAKBCxQw-74" vertex="1">
          <mxGeometry y="60" width="220" height="26" as="geometry" />
        </mxCell>
        <mxCell id="X9t2nn5iT1wmEAKBCxQw-78" value="" style="endArrow=open;endFill=1;endSize=12;html=1;rounded=0;edgeStyle=orthogonalEdgeStyle;exitX=0.5;exitY=0;exitDx=0;exitDy=0;entryX=0.464;entryY=1.06;entryDx=0;entryDy=0;entryPerimeter=0;" parent="1" source="UL4YKMBXZopJeCdpC2au-50" target="X9t2nn5iT1wmEAKBCxQw-77" edge="1">
          <mxGeometry width="160" relative="1" as="geometry">
            <mxPoint x="3290" y="350" as="sourcePoint" />
            <mxPoint x="3450" y="350" as="targetPoint" />
            <Array as="points">
              <mxPoint x="3280" y="419" />
              <mxPoint x="3502" y="419" />
            </Array>
          </mxGeometry>
        </mxCell>
        <mxCell id="X9t2nn5iT1wmEAKBCxQw-79" value="" style="endArrow=open;endFill=1;endSize=12;html=1;rounded=0;edgeStyle=orthogonalEdgeStyle;entryX=1;entryY=0.5;entryDx=0;entryDy=0;exitX=0.57;exitY=0.008;exitDx=0;exitDy=0;exitPerimeter=0;" parent="1" source="ulZ0jbCKSlaguCblbPYP-21" target="xpTjOEdWHdF4yTKwdctW-26" edge="1">
          <mxGeometry width="160" relative="1" as="geometry">
            <mxPoint x="3160" y="250" as="sourcePoint" />
            <mxPoint x="3320" y="250" as="targetPoint" />
            <Array as="points">
              <mxPoint x="4275" y="200" />
              <mxPoint x="2570" y="200" />
            </Array>
          </mxGeometry>
        </mxCell>
        <mxCell id="X9t2nn5iT1wmEAKBCxQw-80" value="" style="endArrow=open;endFill=1;endSize=12;html=1;rounded=0;edgeStyle=orthogonalEdgeStyle;" parent="1" edge="1">
          <mxGeometry width="160" relative="1" as="geometry">
            <mxPoint x="1260" y="730" as="sourcePoint" />
            <mxPoint x="2410" y="193" as="targetPoint" />
            <Array as="points">
              <mxPoint x="1260" y="734" />
              <mxPoint x="2410" y="734" />
            </Array>
          </mxGeometry>
        </mxCell>
        <mxCell id="UL4YKMBXZopJeCdpC2au-80" value="OnPageSeoAspect" style="swimlane;fontStyle=1;align=center;verticalAlign=top;childLayout=stackLayout;horizontal=1;startSize=26;horizontalStack=0;resizeParent=1;resizeParentMax=0;resizeLast=0;collapsible=1;marginBottom=0;" parent="1" vertex="1">
          <mxGeometry x="1700" y="1248" width="160" height="34" as="geometry" />
        </mxCell>
        <mxCell id="ulZ0jbCKSlaguCblbPYP-35" value="Extends" style="endArrow=block;endSize=16;endFill=0;html=1;entryX=0.341;entryY=0.993;entryDx=0;entryDy=0;entryPerimeter=0;" parent="UL4YKMBXZopJeCdpC2au-80" target="UL4YKMBXZopJeCdpC2au-92" edge="1">
          <mxGeometry width="160" relative="1" as="geometry">
            <mxPoint x="90" y="2" as="sourcePoint" />
            <mxPoint x="250" y="2" as="targetPoint" />
            <Array as="points">
              <mxPoint x="90" y="-18" />
              <mxPoint x="260" y="-18" />
            </Array>
          </mxGeometry>
        </mxCell>
        <mxCell id="UL4YKMBXZopJeCdpC2au-82" value="" style="line;strokeWidth=1;fillColor=none;align=left;verticalAlign=middle;spacingTop=-1;spacingLeft=3;spacingRight=3;rotatable=0;labelPosition=right;points=[];portConstraint=eastwest;" parent="UL4YKMBXZopJeCdpC2au-80" vertex="1">
          <mxGeometry y="26" width="160" height="8" as="geometry" />
        </mxCell>
        <mxCell id="UL4YKMBXZopJeCdpC2au-84" value="OffPageSeoAspect" style="swimlane;fontStyle=3;align=center;verticalAlign=top;childLayout=stackLayout;horizontal=1;startSize=26;horizontalStack=0;resizeParent=1;resizeParentMax=0;resizeLast=0;collapsible=1;marginBottom=0;" parent="1" vertex="1">
          <mxGeometry x="1960" y="1248" width="160" height="34" as="geometry" />
        </mxCell>
        <mxCell id="ulZ0jbCKSlaguCblbPYP-36" value="Extends" style="endArrow=block;endSize=16;endFill=0;html=1;entryX=0.338;entryY=0.993;entryDx=0;entryDy=0;entryPerimeter=0;" parent="UL4YKMBXZopJeCdpC2au-84" target="UL4YKMBXZopJeCdpC2au-92" edge="1">
          <mxGeometry width="160" relative="1" as="geometry">
            <mxPoint x="80" y="2" as="sourcePoint" />
            <mxPoint x="240" y="2" as="targetPoint" />
            <Array as="points">
              <mxPoint x="80" y="-18" />
              <mxPoint x="3" y="-18" />
            </Array>
          </mxGeometry>
        </mxCell>
        <mxCell id="UL4YKMBXZopJeCdpC2au-86" value="" style="line;strokeWidth=1;fillColor=none;align=left;verticalAlign=middle;spacingTop=-1;spacingLeft=3;spacingRight=3;rotatable=0;labelPosition=right;points=[];portConstraint=eastwest;" parent="UL4YKMBXZopJeCdpC2au-84" vertex="1">
          <mxGeometry y="26" width="160" height="8" as="geometry" />
        </mxCell>
        <mxCell id="UL4YKMBXZopJeCdpC2au-89" value="SEOAspect" style="swimlane;fontStyle=1;align=center;verticalAlign=top;childLayout=stackLayout;horizontal=1;startSize=26;horizontalStack=0;resizeParent=1;resizeParentMax=0;resizeLast=0;collapsible=1;marginBottom=0;" parent="1" vertex="1">
          <mxGeometry x="1830" y="990" width="390" height="210" as="geometry">
            <mxRectangle x="2170" y="1464" width="100" height="26" as="alternateBounds" />
          </mxGeometry>
        </mxCell>
        <mxCell id="UL4YKMBXZopJeCdpC2au-90" value="- weight: Int&lt;br&gt;&lt;u&gt;+ tags: htmlTag[0..*]&lt;/u&gt;&lt;br&gt;&lt;div&gt;+ childAspects: SEOAspect[0..*]&lt;/div&gt;&lt;div&gt;+ problems: SEOProblem[0..*]&lt;/div&gt;" style="text;strokeColor=none;fillColor=none;align=left;verticalAlign=top;spacingLeft=4;spacingRight=4;overflow=hidden;rotatable=0;points=[[0,0.5],[1,0.5]];portConstraint=eastwest;fontStyle=0;html=1;" parent="UL4YKMBXZopJeCdpC2au-89" vertex="1">
          <mxGeometry y="26" width="390" height="64" as="geometry" />
        </mxCell>
        <mxCell id="UL4YKMBXZopJeCdpC2au-91" value="" style="line;strokeWidth=1;fillColor=none;align=left;verticalAlign=middle;spacingTop=-1;spacingLeft=3;spacingRight=3;rotatable=0;labelPosition=right;points=[];portConstraint=eastwest;" parent="UL4YKMBXZopJeCdpC2au-89" vertex="1">
          <mxGeometry y="90" width="390" height="8" as="geometry" />
        </mxCell>
        <mxCell id="UL4YKMBXZopJeCdpC2au-92" value="+ removeAspect(aspect: SEOAspect) : void&#xa;+  addAspect(aspect: SEOAspect) : void&#xa;+ getAspect(aspect: SEOAspect): SEOAspect&#xa;+ calculateImpact(elements: htmlElement[0..*]): Int&#xa;+ getSuggestionsList(elements: htmlElement[0..*]): SEOProblem[0..*]&#xa;+ getSuggestionsTree(elements: htmlElement[0..*]): SEOAspect[0..*]&#xa;+ calculateImpact(elements: htmlElement[0..*]): Int&#xa;" style="text;strokeColor=none;fillColor=none;align=left;verticalAlign=top;spacingLeft=4;spacingRight=4;overflow=hidden;rotatable=0;points=[[0,0.5],[1,0.5]];portConstraint=eastwest;" parent="UL4YKMBXZopJeCdpC2au-89" vertex="1">
          <mxGeometry y="98" width="390" height="112" as="geometry" />
        </mxCell>
        <mxCell id="UL4YKMBXZopJeCdpC2au-95" value="MetaTagsUsage" style="swimlane;fontStyle=1;align=center;verticalAlign=top;childLayout=stackLayout;horizontal=1;startSize=26;horizontalStack=0;resizeParent=1;resizeParentMax=0;resizeLast=0;collapsible=1;marginBottom=0;" parent="1" vertex="1">
          <mxGeometry x="1540" y="1370" width="160" height="34" as="geometry" />
        </mxCell>
        <mxCell id="ulZ0jbCKSlaguCblbPYP-48" value="Extends" style="endArrow=block;endSize=16;endFill=0;html=1;exitX=0.616;exitY=-0.018;exitDx=0;exitDy=0;exitPerimeter=0;" parent="UL4YKMBXZopJeCdpC2au-95" source="UL4YKMBXZopJeCdpC2au-95" edge="1">
          <mxGeometry width="160" relative="1" as="geometry">
            <mxPoint x="100" y="-10" as="sourcePoint" />
            <mxPoint x="220" y="-90" as="targetPoint" />
            <Array as="points">
              <mxPoint x="99" y="-50" />
              <mxPoint x="220" y="-50" />
            </Array>
          </mxGeometry>
        </mxCell>
        <mxCell id="UL4YKMBXZopJeCdpC2au-97" value="" style="line;strokeWidth=1;fillColor=none;align=left;verticalAlign=middle;spacingTop=-1;spacingLeft=3;spacingRight=3;rotatable=0;labelPosition=right;points=[];portConstraint=eastwest;" parent="UL4YKMBXZopJeCdpC2au-95" vertex="1">
          <mxGeometry y="26" width="160" height="8" as="geometry" />
        </mxCell>
        <mxCell id="UL4YKMBXZopJeCdpC2au-99" value="TitleUsage" style="swimlane;fontStyle=1;align=center;verticalAlign=top;childLayout=stackLayout;horizontal=1;startSize=26;horizontalStack=0;resizeParent=1;resizeParentMax=0;resizeLast=0;collapsible=1;marginBottom=0;" parent="1" vertex="1">
          <mxGeometry x="1500" y="1529.5" width="160" height="34" as="geometry" />
        </mxCell>
        <mxCell id="ulZ0jbCKSlaguCblbPYP-42" value="Extends" style="endArrow=block;endSize=16;endFill=0;html=1;exitX=0.409;exitY=-0.026;exitDx=0;exitDy=0;exitPerimeter=0;" parent="UL4YKMBXZopJeCdpC2au-99" source="UL4YKMBXZopJeCdpC2au-99" edge="1">
          <mxGeometry width="160" relative="1" as="geometry">
            <mxPoint x="70" y="-9.5" as="sourcePoint" />
            <mxPoint x="120" y="-129.5" as="targetPoint" />
            <Array as="points">
              <mxPoint x="65" y="-29.5" />
              <mxPoint x="90" y="-29.5" />
              <mxPoint x="120" y="-29.5" />
            </Array>
          </mxGeometry>
        </mxCell>
        <mxCell id="UL4YKMBXZopJeCdpC2au-101" value="" style="line;strokeWidth=1;fillColor=none;align=left;verticalAlign=middle;spacingTop=-1;spacingLeft=3;spacingRight=3;rotatable=0;labelPosition=right;points=[];portConstraint=eastwest;" parent="UL4YKMBXZopJeCdpC2au-99" vertex="1">
          <mxGeometry y="26" width="160" height="8" as="geometry" />
        </mxCell>
        <mxCell id="UL4YKMBXZopJeCdpC2au-103" value="PageDescriptionUsage" style="swimlane;fontStyle=1;align=center;verticalAlign=top;childLayout=stackLayout;horizontal=1;startSize=26;horizontalStack=0;resizeParent=1;resizeParentMax=0;resizeLast=0;collapsible=1;marginBottom=0;" parent="1" vertex="1">
          <mxGeometry x="1750" y="1546" width="160" height="34" as="geometry" />
        </mxCell>
        <mxCell id="ulZ0jbCKSlaguCblbPYP-43" value="Extends" style="endArrow=block;endSize=16;endFill=0;html=1;entryX=0.5;entryY=0.5;entryDx=0;entryDy=0;entryPerimeter=0;" parent="UL4YKMBXZopJeCdpC2au-103" target="UL4YKMBXZopJeCdpC2au-97" edge="1">
          <mxGeometry width="160" relative="1" as="geometry">
            <mxPoint x="50" y="4" as="sourcePoint" />
            <mxPoint x="-130" y="-136" as="targetPoint" />
            <Array as="points">
              <mxPoint x="50" y="-46" />
              <mxPoint x="-130" y="-46" />
            </Array>
          </mxGeometry>
        </mxCell>
        <mxCell id="UL4YKMBXZopJeCdpC2au-105" value="" style="line;strokeWidth=1;fillColor=none;align=left;verticalAlign=middle;spacingTop=-1;spacingLeft=3;spacingRight=3;rotatable=0;labelPosition=right;points=[];portConstraint=eastwest;" parent="UL4YKMBXZopJeCdpC2au-103" vertex="1">
          <mxGeometry y="26" width="160" height="8" as="geometry" />
        </mxCell>
        <mxCell id="UL4YKMBXZopJeCdpC2au-107" value="AltTagsUsage" style="swimlane;fontStyle=1;align=center;verticalAlign=top;childLayout=stackLayout;horizontal=1;startSize=26;horizontalStack=0;resizeParent=1;resizeParentMax=0;resizeLast=0;collapsible=1;marginBottom=0;" parent="1" vertex="1">
          <mxGeometry x="1890" y="1370" width="160" height="34" as="geometry" />
        </mxCell>
        <mxCell id="ulZ0jbCKSlaguCblbPYP-49" value="Extends" style="endArrow=block;endSize=16;endFill=0;html=1;" parent="UL4YKMBXZopJeCdpC2au-107" edge="1">
          <mxGeometry width="160" relative="1" as="geometry">
            <mxPoint x="70" as="sourcePoint" />
            <mxPoint x="-130" y="-90" as="targetPoint" />
            <Array as="points">
              <mxPoint x="70" y="-50" />
              <mxPoint x="-130" y="-50" />
            </Array>
          </mxGeometry>
        </mxCell>
        <mxCell id="UL4YKMBXZopJeCdpC2au-109" value="" style="line;strokeWidth=1;fillColor=none;align=left;verticalAlign=middle;spacingTop=-1;spacingLeft=3;spacingRight=3;rotatable=0;labelPosition=right;points=[];portConstraint=eastwest;" parent="UL4YKMBXZopJeCdpC2au-107" vertex="1">
          <mxGeometry y="26" width="160" height="8" as="geometry" />
        </mxCell>
        <mxCell id="UL4YKMBXZopJeCdpC2au-111" value="SemanticTagsUsage" style="swimlane;fontStyle=1;align=center;verticalAlign=top;childLayout=stackLayout;horizontal=1;startSize=26;horizontalStack=0;resizeParent=1;resizeParentMax=0;resizeLast=0;collapsible=1;marginBottom=0;" parent="1" vertex="1">
          <mxGeometry x="2170" y="1370" width="160" height="34" as="geometry" />
        </mxCell>
        <mxCell id="ulZ0jbCKSlaguCblbPYP-50" value="Extends" style="endArrow=block;endSize=16;endFill=0;html=1;" parent="UL4YKMBXZopJeCdpC2au-111" edge="1">
          <mxGeometry width="160" relative="1" as="geometry">
            <mxPoint x="70" as="sourcePoint" />
            <mxPoint x="-410" y="-90" as="targetPoint" />
            <Array as="points">
              <mxPoint x="70" y="-50" />
              <mxPoint x="-410" y="-50" />
            </Array>
          </mxGeometry>
        </mxCell>
        <mxCell id="UL4YKMBXZopJeCdpC2au-113" value="" style="line;strokeWidth=1;fillColor=none;align=left;verticalAlign=middle;spacingTop=-1;spacingLeft=3;spacingRight=3;rotatable=0;labelPosition=right;points=[];portConstraint=eastwest;" parent="UL4YKMBXZopJeCdpC2au-111" vertex="1">
          <mxGeometry y="26" width="160" height="8" as="geometry" />
        </mxCell>
        <mxCell id="UL4YKMBXZopJeCdpC2au-115" value="URLOptimization" style="swimlane;fontStyle=1;align=center;verticalAlign=top;childLayout=stackLayout;horizontal=1;startSize=26;horizontalStack=0;resizeParent=1;resizeParentMax=0;resizeLast=0;collapsible=1;marginBottom=0;" parent="1" vertex="1">
          <mxGeometry x="2410" y="1370" width="160" height="34" as="geometry" />
        </mxCell>
        <mxCell id="ulZ0jbCKSlaguCblbPYP-51" value="Extends" style="endArrow=block;endSize=16;endFill=0;html=1;" parent="UL4YKMBXZopJeCdpC2au-115" edge="1">
          <mxGeometry width="160" relative="1" as="geometry">
            <mxPoint x="70" as="sourcePoint" />
            <mxPoint x="-650" y="-90" as="targetPoint" />
            <Array as="points">
              <mxPoint x="70" y="-50" />
              <mxPoint x="-650" y="-50" />
            </Array>
          </mxGeometry>
        </mxCell>
        <mxCell id="UL4YKMBXZopJeCdpC2au-117" value="" style="line;strokeWidth=1;fillColor=none;align=left;verticalAlign=middle;spacingTop=-1;spacingLeft=3;spacingRight=3;rotatable=0;labelPosition=right;points=[];portConstraint=eastwest;" parent="UL4YKMBXZopJeCdpC2au-115" vertex="1">
          <mxGeometry y="26" width="160" height="8" as="geometry" />
        </mxCell>
        <mxCell id="UL4YKMBXZopJeCdpC2au-119" value="Formatting" style="swimlane;fontStyle=1;align=center;verticalAlign=top;childLayout=stackLayout;horizontal=1;startSize=26;horizontalStack=0;resizeParent=1;resizeParentMax=0;resizeLast=0;collapsible=1;marginBottom=0;" parent="1" vertex="1">
          <mxGeometry x="2660" y="1370" width="160" height="34" as="geometry" />
        </mxCell>
        <mxCell id="ulZ0jbCKSlaguCblbPYP-52" value="Extends" style="endArrow=block;endSize=16;endFill=0;html=1;" parent="UL4YKMBXZopJeCdpC2au-119" edge="1">
          <mxGeometry width="160" relative="1" as="geometry">
            <mxPoint x="60" as="sourcePoint" />
            <mxPoint x="-900" y="-90" as="targetPoint" />
            <Array as="points">
              <mxPoint x="60" y="-50" />
              <mxPoint x="-900" y="-50" />
            </Array>
          </mxGeometry>
        </mxCell>
        <mxCell id="UL4YKMBXZopJeCdpC2au-121" value="" style="line;strokeWidth=1;fillColor=none;align=left;verticalAlign=middle;spacingTop=-1;spacingLeft=3;spacingRight=3;rotatable=0;labelPosition=right;points=[];portConstraint=eastwest;" parent="UL4YKMBXZopJeCdpC2au-119" vertex="1">
          <mxGeometry y="26" width="160" height="8" as="geometry" />
        </mxCell>
        <mxCell id="UL4YKMBXZopJeCdpC2au-123" value="HTagUsage" style="swimlane;fontStyle=1;align=center;verticalAlign=top;childLayout=stackLayout;horizontal=1;startSize=26;horizontalStack=0;resizeParent=1;resizeParentMax=0;resizeLast=0;collapsible=1;marginBottom=0;" parent="1" vertex="1">
          <mxGeometry x="2750" y="1560" width="160" height="34" as="geometry" />
        </mxCell>
        <mxCell id="ulZ0jbCKSlaguCblbPYP-57" value="Extends" style="endArrow=block;endSize=16;endFill=0;html=1;entryX=0.352;entryY=0.839;entryDx=0;entryDy=0;entryPerimeter=0;" parent="UL4YKMBXZopJeCdpC2au-123" target="UL4YKMBXZopJeCdpC2au-121" edge="1">
          <mxGeometry width="160" relative="1" as="geometry">
            <mxPoint x="50" as="sourcePoint" />
            <mxPoint x="-30" y="-150" as="targetPoint" />
            <Array as="points">
              <mxPoint x="50" y="-30" />
              <mxPoint x="-30" y="-30" />
            </Array>
          </mxGeometry>
        </mxCell>
        <mxCell id="UL4YKMBXZopJeCdpC2au-125" value="" style="line;strokeWidth=1;fillColor=none;align=left;verticalAlign=middle;spacingTop=-1;spacingLeft=3;spacingRight=3;rotatable=0;labelPosition=right;points=[];portConstraint=eastwest;" parent="UL4YKMBXZopJeCdpC2au-123" vertex="1">
          <mxGeometry y="26" width="160" height="8" as="geometry" />
        </mxCell>
        <mxCell id="UL4YKMBXZopJeCdpC2au-127" value="NoHeaderFoundProblem" style="swimlane;fontStyle=1;align=center;verticalAlign=top;childLayout=stackLayout;horizontal=1;startSize=26;horizontalStack=0;resizeParent=1;resizeParentMax=0;resizeLast=0;collapsible=1;marginBottom=0;" parent="1" vertex="1">
          <mxGeometry x="2260" y="1560" width="160" height="34" as="geometry">
            <mxRectangle x="2260" y="1560" width="170" height="26" as="alternateBounds" />
          </mxGeometry>
        </mxCell>
        <mxCell id="UL4YKMBXZopJeCdpC2au-129" value="" style="line;strokeWidth=1;fillColor=none;align=left;verticalAlign=middle;spacingTop=-1;spacingLeft=3;spacingRight=3;rotatable=0;labelPosition=right;points=[];portConstraint=eastwest;" parent="UL4YKMBXZopJeCdpC2au-127" vertex="1">
          <mxGeometry y="26" width="160" height="8" as="geometry" />
        </mxCell>
        <mxCell id="UL4YKMBXZopJeCdpC2au-196" value="SlugUsage" style="swimlane;fontStyle=1;align=center;verticalAlign=top;childLayout=stackLayout;horizontal=1;startSize=26;horizontalStack=0;resizeParent=1;resizeParentMax=0;resizeLast=0;collapsible=1;marginBottom=0;" parent="1" vertex="1">
          <mxGeometry x="2490" y="1560" width="160" height="30" as="geometry" />
        </mxCell>
        <mxCell id="ulZ0jbCKSlaguCblbPYP-56" value="Extends" style="endArrow=block;endSize=16;endFill=0;html=1;entryX=0.421;entryY=0.696;entryDx=0;entryDy=0;entryPerimeter=0;" parent="UL4YKMBXZopJeCdpC2au-196" target="UL4YKMBXZopJeCdpC2au-117" edge="1">
          <mxGeometry width="160" relative="1" as="geometry">
            <mxPoint x="60" as="sourcePoint" />
            <mxPoint x="-10" y="-150" as="targetPoint" />
            <Array as="points">
              <mxPoint x="60" y="-40" />
              <mxPoint x="-10" y="-40" />
            </Array>
          </mxGeometry>
        </mxCell>
        <mxCell id="UL4YKMBXZopJeCdpC2au-198" value="" style="line;strokeWidth=1;fillColor=none;align=left;verticalAlign=middle;spacingTop=-1;spacingLeft=3;spacingRight=3;rotatable=0;labelPosition=right;points=[];portConstraint=eastwest;" parent="UL4YKMBXZopJeCdpC2au-196" vertex="1">
          <mxGeometry y="26" width="160" height="4" as="geometry" />
        </mxCell>
        <mxCell id="X9t2nn5iT1wmEAKBCxQw-89" value="DescriptionNotFoundProblem" style="swimlane;fontStyle=1;childLayout=stackLayout;horizontal=1;startSize=26;fillColor=none;horizontalStack=0;resizeParent=1;resizeParentMax=0;resizeLast=0;collapsible=1;marginBottom=0;" parent="1" vertex="1">
          <mxGeometry x="1720" y="1663" width="190" height="37" as="geometry" />
        </mxCell>
        <mxCell id="ZvxXPG6ARuYnSKrhNRSG-1" value="FewAltTagsProblem" style="swimlane;fontStyle=1;childLayout=stackLayout;horizontal=1;startSize=26;fillColor=none;horizontalStack=0;resizeParent=1;resizeParentMax=0;resizeLast=0;collapsible=1;marginBottom=0;" parent="1" vertex="1">
          <mxGeometry x="2010" y="1546" width="140" height="34" as="geometry" />
        </mxCell>
        <mxCell id="ZvxXPG6ARuYnSKrhNRSG-9" value="SEOAspectProxy" style="swimlane;fontStyle=1;align=center;verticalAlign=top;childLayout=stackLayout;horizontal=1;startSize=26;horizontalStack=0;resizeParent=1;resizeParentMax=0;resizeLast=0;collapsible=1;marginBottom=0;" parent="1" vertex="1">
          <mxGeometry x="1660" y="390" width="300" height="100" as="geometry" />
        </mxCell>
        <mxCell id="ZvxXPG6ARuYnSKrhNRSG-10" value="- seoAspectConfiguration: SEOAspect" style="text;strokeColor=none;fillColor=none;align=left;verticalAlign=top;spacingLeft=4;spacingRight=4;overflow=hidden;rotatable=0;points=[[0,0.5],[1,0.5]];portConstraint=eastwest;" parent="ZvxXPG6ARuYnSKrhNRSG-9" vertex="1">
          <mxGeometry y="26" width="300" height="26" as="geometry" />
        </mxCell>
        <mxCell id="ZvxXPG6ARuYnSKrhNRSG-11" value="" style="line;strokeWidth=1;fillColor=none;align=left;verticalAlign=middle;spacingTop=-1;spacingLeft=3;spacingRight=3;rotatable=0;labelPosition=right;points=[];portConstraint=eastwest;" parent="ZvxXPG6ARuYnSKrhNRSG-9" vertex="1">
          <mxGeometry y="52" width="300" height="8" as="geometry" />
        </mxCell>
        <mxCell id="ZvxXPG6ARuYnSKrhNRSG-12" value="+ getDefaultConfiguration(): SEOAspect&#xa;+ updateDefaultConfiguration(): void&#xa;&#xa;&#xa;" style="text;strokeColor=none;fillColor=none;align=left;verticalAlign=top;spacingLeft=4;spacingRight=4;overflow=hidden;rotatable=0;points=[[0,0.5],[1,0.5]];portConstraint=eastwest;" parent="ZvxXPG6ARuYnSKrhNRSG-9" vertex="1">
          <mxGeometry y="60" width="300" height="40" as="geometry" />
        </mxCell>
        <mxCell id="ZvxXPG6ARuYnSKrhNRSG-14" value="" style="endArrow=block;dashed=1;endFill=0;endSize=12;html=1;rounded=0;edgeStyle=orthogonalEdgeStyle;exitX=0.5;exitY=0;exitDx=0;exitDy=0;entryX=0.474;entryY=1;entryDx=0;entryDy=0;entryPerimeter=0;" parent="1" source="UL4YKMBXZopJeCdpC2au-89" target="ZvxXPG6ARuYnSKrhNRSG-31" edge="1">
          <mxGeometry width="160" relative="1" as="geometry">
            <mxPoint x="1600" y="1166" as="sourcePoint" />
            <mxPoint x="1680" y="910" as="targetPoint" />
            <Array as="points">
              <mxPoint x="2000" y="956" />
              <mxPoint x="2142" y="956" />
            </Array>
          </mxGeometry>
        </mxCell>
        <mxCell id="ZvxXPG6ARuYnSKrhNRSG-15" value="SEOProblem" style="swimlane;fontStyle=3;align=center;verticalAlign=top;childLayout=stackLayout;horizontal=1;startSize=26;horizontalStack=0;resizeParent=1;resizeParentMax=0;resizeLast=0;collapsible=1;marginBottom=0;" parent="1" vertex="1">
          <mxGeometry x="2470" y="996" width="290" height="170" as="geometry" />
        </mxCell>
        <mxCell id="ZvxXPG6ARuYnSKrhNRSG-16" value="- weight: Int&#xa;+ suggestionPool: String[0..*]&#xa;+ description: String&#xa;+ suggestions: String[0..*]&#xa;+ occurences: htmlTagPosition[0..*]&#xa;&#xa;+ &#xa;&#xa;" style="text;strokeColor=none;fillColor=none;align=left;verticalAlign=top;spacingLeft=4;spacingRight=4;overflow=hidden;rotatable=0;points=[[0,0.5],[1,0.5]];portConstraint=eastwest;fontStyle=0;horizontal=1;" parent="ZvxXPG6ARuYnSKrhNRSG-15" vertex="1">
          <mxGeometry y="26" width="290" height="74" as="geometry" />
        </mxCell>
        <mxCell id="ZvxXPG6ARuYnSKrhNRSG-17" value="" style="line;strokeWidth=1;fillColor=none;align=left;verticalAlign=middle;spacingTop=-1;spacingLeft=3;spacingRight=3;rotatable=0;labelPosition=right;points=[];portConstraint=eastwest;" parent="ZvxXPG6ARuYnSKrhNRSG-15" vertex="1">
          <mxGeometry y="100" width="290" height="20" as="geometry" />
        </mxCell>
        <mxCell id="ZvxXPG6ARuYnSKrhNRSG-18" value="+ calculateImpact(elements: htmlElement[0..*]): Int&#xa;+ getSuggestions(elements: htmlElement[0..*]):&#xa;" style="text;strokeColor=none;fillColor=none;align=left;verticalAlign=top;spacingLeft=4;spacingRight=4;overflow=hidden;rotatable=0;points=[[0,0.5],[1,0.5]];portConstraint=eastwest;" parent="ZvxXPG6ARuYnSKrhNRSG-15" vertex="1">
          <mxGeometry y="120" width="290" height="50" as="geometry" />
        </mxCell>
        <mxCell id="ZvxXPG6ARuYnSKrhNRSG-29" value="" style="endArrow=open;endFill=1;endSize=12;html=1;rounded=0;edgeStyle=orthogonalEdgeStyle;exitX=0.5;exitY=0;exitDx=0;exitDy=0;entryX=0.627;entryY=1.07;entryDx=0;entryDy=0;entryPerimeter=0;" parent="1" source="ZvxXPG6ARuYnSKrhNRSG-9" edge="1" target="UL4YKMBXZopJeCdpC2au-62">
          <mxGeometry width="160" relative="1" as="geometry">
            <mxPoint x="2220" y="940" as="sourcePoint" />
            <mxPoint x="1150" y="130" as="targetPoint" />
            <Array as="points">
              <mxPoint x="1810" y="320" />
              <mxPoint x="1150" y="320" />
              <mxPoint x="1150" y="130" />
            </Array>
          </mxGeometry>
        </mxCell>
        <mxCell id="ZvxXPG6ARuYnSKrhNRSG-31" value="&lt;p style=&quot;margin: 0px ; margin-top: 4px ; text-align: center&quot;&gt;&lt;i&gt;&amp;lt;&amp;lt;Interface&amp;gt;&amp;gt;&lt;/i&gt;&lt;br&gt;&lt;b&gt;ImpactCalculatable&lt;/b&gt;&lt;/p&gt;&lt;hr size=&quot;1&quot;&gt;&lt;hr size=&quot;1&quot;&gt;&lt;p style=&quot;margin: 0px ; margin-left: 4px&quot;&gt;+ calculateImpact (elements :htmlElement[0..*]) : Int&lt;/p&gt;" style="verticalAlign=top;align=left;overflow=fill;fontSize=12;fontFamily=Helvetica;html=1;" parent="1" vertex="1">
          <mxGeometry x="1990" y="836" width="320" height="80" as="geometry" />
        </mxCell>
        <mxCell id="ZvxXPG6ARuYnSKrhNRSG-46" value="htmlTag" style="swimlane;fontStyle=1;align=center;verticalAlign=top;childLayout=stackLayout;horizontal=1;startSize=26;horizontalStack=0;resizeParent=1;resizeParentMax=0;resizeLast=0;collapsible=1;marginBottom=0;" parent="1" vertex="1">
          <mxGeometry x="2250" y="986" width="160" height="34" as="geometry" />
        </mxCell>
        <mxCell id="ZvxXPG6ARuYnSKrhNRSG-47" value="" style="line;strokeWidth=1;fillColor=none;align=left;verticalAlign=middle;spacingTop=-1;spacingLeft=3;spacingRight=3;rotatable=0;labelPosition=right;points=[];portConstraint=eastwest;" parent="ZvxXPG6ARuYnSKrhNRSG-46" vertex="1">
          <mxGeometry y="26" width="160" height="8" as="geometry" />
        </mxCell>
        <mxCell id="xOgXABfGznbNNHsN3aHD-12" value="" style="endArrow=block;dashed=1;endFill=0;endSize=12;html=1;rounded=0;edgeStyle=orthogonalEdgeStyle;exitX=0.5;exitY=0;exitDx=0;exitDy=0;entryX=0.474;entryY=1;entryDx=0;entryDy=0;entryPerimeter=0;" parent="1" source="ZvxXPG6ARuYnSKrhNRSG-15" target="ZvxXPG6ARuYnSKrhNRSG-31" edge="1">
          <mxGeometry width="160" relative="1" as="geometry">
            <mxPoint x="1510" y="916" as="sourcePoint" />
            <mxPoint x="1670" y="916" as="targetPoint" />
            <Array as="points">
              <mxPoint x="2605" y="956" />
              <mxPoint x="2142" y="956" />
            </Array>
          </mxGeometry>
        </mxCell>
        <mxCell id="xdEpOosHyWj6ykagDoDC-6" value="" style="endArrow=open;endFill=1;endSize=12;html=1;rounded=0;edgeStyle=orthogonalEdgeStyle;exitX=0.011;exitY=0.55;exitDx=0;exitDy=0;exitPerimeter=0;entryX=0.728;entryY=1.022;entryDx=0;entryDy=0;entryPerimeter=0;" parent="1" source="ZvxXPG6ARuYnSKrhNRSG-17" target="ZvxXPG6ARuYnSKrhNRSG-47" edge="1">
          <mxGeometry width="160" relative="1" as="geometry">
            <mxPoint x="2181.02" y="1119.056" as="sourcePoint" />
            <mxPoint x="2370" y="1030" as="targetPoint" />
            <Array as="points">
              <mxPoint x="2366" y="1107" />
            </Array>
          </mxGeometry>
        </mxCell>
        <mxCell id="xdEpOosHyWj6ykagDoDC-7" value="TitleLengthProblem" style="swimlane;fontStyle=1;align=center;verticalAlign=top;childLayout=stackLayout;horizontal=1;startSize=26;horizontalStack=0;resizeParent=1;resizeParentMax=0;resizeLast=0;collapsible=1;marginBottom=0;html=1;" parent="1" vertex="1">
          <mxGeometry x="1480" y="1681" width="160" height="34" as="geometry" />
        </mxCell>
        <mxCell id="xdEpOosHyWj6ykagDoDC-9" value="" style="line;strokeWidth=1;fillColor=none;align=left;verticalAlign=middle;spacingTop=-1;spacingLeft=3;spacingRight=3;rotatable=0;labelPosition=right;points=[];portConstraint=eastwest;html=1;" parent="xdEpOosHyWj6ykagDoDC-7" vertex="1">
          <mxGeometry y="26" width="160" height="8" as="geometry" />
        </mxCell>
        <mxCell id="xdEpOosHyWj6ykagDoDC-11" value="" style="endArrow=diamondThin;endFill=1;endSize=24;html=1;rounded=0;edgeStyle=orthogonalEdgeStyle;entryX=1;entryY=0.5;entryDx=0;entryDy=0;exitX=0;exitY=0.5;exitDx=0;exitDy=0;" parent="1" source="ZvxXPG6ARuYnSKrhNRSG-18" target="UL4YKMBXZopJeCdpC2au-92" edge="1">
          <mxGeometry width="160" relative="1" as="geometry">
            <mxPoint x="2460" y="1144" as="sourcePoint" />
            <mxPoint x="2350" y="1286" as="targetPoint" />
            <Array as="points">
              <mxPoint x="2470" y="1144" />
            </Array>
          </mxGeometry>
        </mxCell>
        <mxCell id="xdEpOosHyWj6ykagDoDC-12" value="KeywordsUsage" style="swimlane;fontStyle=1;align=center;verticalAlign=top;childLayout=stackLayout;horizontal=1;startSize=26;horizontalStack=0;resizeParent=1;resizeParentMax=0;resizeLast=0;collapsible=1;marginBottom=0;" parent="1" vertex="1">
          <mxGeometry x="1030" y="1366" width="160" height="34" as="geometry" />
        </mxCell>
        <mxCell id="xdEpOosHyWj6ykagDoDC-16" value="PowerWordsUsage" style="swimlane;fontStyle=1;align=center;verticalAlign=top;childLayout=stackLayout;horizontal=1;startSize=26;horizontalStack=0;resizeParent=1;resizeParentMax=0;resizeLast=0;collapsible=1;marginBottom=0;" parent="1" vertex="1">
          <mxGeometry x="1230" y="1366" width="160" height="34" as="geometry" />
        </mxCell>
        <mxCell id="xdEpOosHyWj6ykagDoDC-18" value="" style="line;strokeWidth=1;fillColor=none;align=left;verticalAlign=middle;spacingTop=-1;spacingLeft=3;spacingRight=3;rotatable=0;labelPosition=right;points=[];portConstraint=eastwest;" parent="xdEpOosHyWj6ykagDoDC-16" vertex="1">
          <mxGeometry y="26" width="160" height="8" as="geometry" />
        </mxCell>
        <mxCell id="ulZ0jbCKSlaguCblbPYP-47" value="Extends" style="endArrow=block;endSize=16;endFill=0;html=1;exitX=0.5;exitY=0;exitDx=0;exitDy=0;" parent="xdEpOosHyWj6ykagDoDC-16" source="xdEpOosHyWj6ykagDoDC-16" edge="1">
          <mxGeometry width="160" relative="1" as="geometry">
            <mxPoint x="90" y="-6" as="sourcePoint" />
            <mxPoint x="530" y="-86" as="targetPoint" />
            <Array as="points">
              <mxPoint x="80" y="-46" />
              <mxPoint x="530" y="-46" />
            </Array>
          </mxGeometry>
        </mxCell>
        <mxCell id="xdEpOosHyWj6ykagDoDC-57" value="Extractor" style="swimlane;fontStyle=1;align=center;verticalAlign=top;childLayout=stackLayout;horizontal=1;startSize=26;horizontalStack=0;resizeParent=1;resizeParentMax=0;resizeLast=0;collapsible=1;marginBottom=0;strokeColor=default;html=1;" parent="1" vertex="1">
          <mxGeometry x="420" y="370" width="300" height="90" as="geometry" />
        </mxCell>
        <mxCell id="xdEpOosHyWj6ykagDoDC-58" value="+ urlServerConnection: ServerManager" style="text;strokeColor=none;fillColor=none;align=left;verticalAlign=top;spacingLeft=4;spacingRight=4;overflow=hidden;rotatable=0;points=[[0,0.5],[1,0.5]];portConstraint=eastwest;html=1;" parent="xdEpOosHyWj6ykagDoDC-57" vertex="1">
          <mxGeometry y="26" width="300" height="26" as="geometry" />
        </mxCell>
        <mxCell id="xdEpOosHyWj6ykagDoDC-59" value="" style="line;strokeWidth=1;fillColor=none;align=left;verticalAlign=middle;spacingTop=-1;spacingLeft=3;spacingRight=3;rotatable=0;labelPosition=right;points=[];portConstraint=eastwest;html=1;" parent="xdEpOosHyWj6ykagDoDC-57" vertex="1">
          <mxGeometry y="52" width="300" height="8" as="geometry" />
        </mxCell>
        <mxCell id="xdEpOosHyWj6ykagDoDC-60" value="&lt;div&gt;+ extractURLS(dataSource: DataSource): String[0..*]&lt;/div&gt;" style="text;strokeColor=none;fillColor=none;align=left;verticalAlign=top;spacingLeft=4;spacingRight=4;overflow=hidden;rotatable=0;points=[[0,0.5],[1,0.5]];portConstraint=eastwest;html=1;" parent="xdEpOosHyWj6ykagDoDC-57" vertex="1">
          <mxGeometry y="60" width="300" height="30" as="geometry" />
        </mxCell>
        <mxCell id="xdEpOosHyWj6ykagDoDC-62" value="Crawler" style="swimlane;fontStyle=1;align=center;verticalAlign=top;childLayout=stackLayout;horizontal=1;startSize=26;horizontalStack=0;resizeParent=1;resizeParentMax=0;resizeLast=0;collapsible=1;marginBottom=0;strokeColor=default;html=1;" parent="1" vertex="1">
          <mxGeometry x="120" y="370" width="240" height="90" as="geometry" />
        </mxCell>
        <mxCell id="xdEpOosHyWj6ykagDoDC-63" value="+ serversConnection: ServerManager" style="text;strokeColor=none;fillColor=none;align=left;verticalAlign=top;spacingLeft=4;spacingRight=4;overflow=hidden;rotatable=0;points=[[0,0.5],[1,0.5]];portConstraint=eastwest;html=1;" parent="xdEpOosHyWj6ykagDoDC-62" vertex="1">
          <mxGeometry y="26" width="240" height="26" as="geometry" />
        </mxCell>
        <mxCell id="xdEpOosHyWj6ykagDoDC-64" value="" style="line;strokeWidth=1;fillColor=none;align=left;verticalAlign=middle;spacingTop=-1;spacingLeft=3;spacingRight=3;rotatable=0;labelPosition=right;points=[];portConstraint=eastwest;html=1;" parent="xdEpOosHyWj6ykagDoDC-62" vertex="1">
          <mxGeometry y="52" width="240" height="8" as="geometry" />
        </mxCell>
        <mxCell id="xdEpOosHyWj6ykagDoDC-65" value="+ scan(urls: String[0..*]): Document[0..*]" style="text;strokeColor=none;fillColor=none;align=left;verticalAlign=top;spacingLeft=4;spacingRight=4;overflow=hidden;rotatable=0;points=[[0,0.5],[1,0.5]];portConstraint=eastwest;html=1;" parent="xdEpOosHyWj6ykagDoDC-62" vertex="1">
          <mxGeometry y="60" width="240" height="30" as="geometry" />
        </mxCell>
        <mxCell id="xdEpOosHyWj6ykagDoDC-67" value="" style="endArrow=open;endFill=1;endSize=12;html=1;rounded=0;edgeStyle=orthogonalEdgeStyle;exitX=0.5;exitY=0;exitDx=0;exitDy=0;" parent="1" source="VXNcRWfN4zNZ4ETa913i-1" edge="1">
          <mxGeometry width="160" relative="1" as="geometry">
            <mxPoint x="1010" y="370" as="sourcePoint" />
            <mxPoint x="1090" y="120" as="targetPoint" />
            <Array as="points">
              <mxPoint x="960" y="310" />
              <mxPoint x="1090" y="310" />
              <mxPoint x="1090" y="130" />
            </Array>
          </mxGeometry>
        </mxCell>
        <mxCell id="xdEpOosHyWj6ykagDoDC-69" value="" style="endArrow=open;endFill=1;endSize=12;html=1;rounded=0;edgeStyle=orthogonalEdgeStyle;entryX=1.012;entryY=0.29;entryDx=0;entryDy=0;entryPerimeter=0;exitX=0;exitY=0.5;exitDx=0;exitDy=0;" parent="1" source="VXNcRWfN4zNZ4ETa913i-4" target="xdEpOosHyWj6ykagDoDC-60" edge="1">
          <mxGeometry width="160" relative="1" as="geometry">
            <mxPoint x="650" y="360" as="sourcePoint" />
            <mxPoint x="810" y="360" as="targetPoint" />
            <Array as="points">
              <mxPoint x="840" y="439" />
            </Array>
          </mxGeometry>
        </mxCell>
        <mxCell id="xdEpOosHyWj6ykagDoDC-72" value="" style="endArrow=open;endFill=1;endSize=12;html=1;rounded=0;edgeStyle=orthogonalEdgeStyle;exitX=0.5;exitY=0;exitDx=0;exitDy=0;entryX=0.32;entryY=1.05;entryDx=0;entryDy=0;entryPerimeter=0;" parent="1" source="xdEpOosHyWj6ykagDoDC-62" edge="1" target="UL4YKMBXZopJeCdpC2au-62">
          <mxGeometry width="160" relative="1" as="geometry">
            <mxPoint x="260" y="313.40999999999997" as="sourcePoint" />
            <mxPoint x="1090" y="130" as="targetPoint" />
            <Array as="points">
              <mxPoint x="230" y="370" />
              <mxPoint x="230" y="310" />
              <mxPoint x="1090" y="310" />
              <mxPoint x="1090" y="130" />
            </Array>
          </mxGeometry>
        </mxCell>
        <mxCell id="xdEpOosHyWj6ykagDoDC-74" value="" style="endArrow=open;endFill=1;endSize=12;html=1;rounded=0;edgeStyle=orthogonalEdgeStyle;" parent="1" source="VXNcRWfN4zNZ4ETa913i-4" edge="1">
          <mxGeometry width="160" relative="1" as="geometry">
            <mxPoint x="1150" y="429.17" as="sourcePoint" />
            <mxPoint x="1300" y="429" as="targetPoint" />
            <Array as="points">
              <mxPoint x="1110" y="429" />
              <mxPoint x="1110" y="429" />
            </Array>
          </mxGeometry>
        </mxCell>
        <mxCell id="xdEpOosHyWj6ykagDoDC-75" value="&lt;b&gt;htmlTagPosition&lt;/b&gt;" style="swimlane;fontStyle=0;childLayout=stackLayout;horizontal=1;startSize=26;fillColor=none;horizontalStack=0;resizeParent=1;resizeParentMax=0;resizeLast=0;collapsible=1;marginBottom=0;html=1;" parent="1" vertex="1">
          <mxGeometry x="2260" y="1176" width="140" height="78" as="geometry" />
        </mxCell>
        <mxCell id="xdEpOosHyWj6ykagDoDC-76" value="+ tag: htmlTag" style="text;strokeColor=none;fillColor=none;align=left;verticalAlign=top;spacingLeft=4;spacingRight=4;overflow=hidden;rotatable=0;points=[[0,0.5],[1,0.5]];portConstraint=eastwest;html=1;" parent="xdEpOosHyWj6ykagDoDC-75" vertex="1">
          <mxGeometry y="26" width="140" height="26" as="geometry" />
        </mxCell>
        <mxCell id="xdEpOosHyWj6ykagDoDC-77" value="+ number: Int " style="text;strokeColor=none;fillColor=none;align=left;verticalAlign=top;spacingLeft=4;spacingRight=4;overflow=hidden;rotatable=0;points=[[0,0.5],[1,0.5]];portConstraint=eastwest;html=1;" parent="xdEpOosHyWj6ykagDoDC-75" vertex="1">
          <mxGeometry y="52" width="140" height="26" as="geometry" />
        </mxCell>
        <mxCell id="xdEpOosHyWj6ykagDoDC-79" value="" style="endArrow=open;endFill=1;endSize=12;html=1;rounded=0;edgeStyle=orthogonalEdgeStyle;exitX=0.448;exitY=1.034;exitDx=0;exitDy=0;exitPerimeter=0;entryX=1.014;entryY=0.154;entryDx=0;entryDy=0;entryPerimeter=0;" parent="1" source="ZvxXPG6ARuYnSKrhNRSG-18" target="xdEpOosHyWj6ykagDoDC-77" edge="1">
          <mxGeometry width="160" relative="1" as="geometry">
            <mxPoint x="2410" y="1226" as="sourcePoint" />
            <mxPoint x="2570" y="1226" as="targetPoint" />
            <Array as="points">
              <mxPoint x="2600" y="1232" />
            </Array>
          </mxGeometry>
        </mxCell>
        <mxCell id="xdEpOosHyWj6ykagDoDC-81" value="" style="endArrow=diamondThin;endFill=0;endSize=24;html=1;rounded=0;edgeStyle=orthogonalEdgeStyle;exitX=0.406;exitY=1;exitDx=0;exitDy=0;exitPerimeter=0;entryX=0.5;entryY=0;entryDx=0;entryDy=0;" parent="1" source="ZvxXPG6ARuYnSKrhNRSG-47" target="xdEpOosHyWj6ykagDoDC-75" edge="1">
          <mxGeometry width="160" relative="1" as="geometry">
            <mxPoint x="2250" y="1090" as="sourcePoint" />
            <mxPoint x="2410" y="1090" as="targetPoint" />
            <Array as="points">
              <mxPoint x="2330" y="1020" />
            </Array>
          </mxGeometry>
        </mxCell>
        <mxCell id="xdEpOosHyWj6ykagDoDC-83" value="" style="endArrow=diamondThin;endFill=1;endSize=24;html=1;rounded=0;edgeStyle=orthogonalEdgeStyle;exitX=0.443;exitY=0.982;exitDx=0;exitDy=0;exitPerimeter=0;entryX=0.5;entryY=0;entryDx=0;entryDy=0;" parent="1" source="UL4YKMBXZopJeCdpC2au-109" target="ZvxXPG6ARuYnSKrhNRSG-1" edge="1">
          <mxGeometry width="160" relative="1" as="geometry">
            <mxPoint x="1962.6399999999999" y="1433.1719999999996" as="sourcePoint" />
            <mxPoint x="2110" y="1506.41" as="targetPoint" />
            <Array as="points">
              <mxPoint x="1963" y="1404" />
              <mxPoint x="1963" y="1500" />
              <mxPoint x="2080" y="1500" />
            </Array>
          </mxGeometry>
        </mxCell>
        <mxCell id="xdEpOosHyWj6ykagDoDC-84" value="" style="endArrow=diamondThin;endFill=1;endSize=24;html=1;rounded=0;edgeStyle=orthogonalEdgeStyle;entryX=0.5;entryY=0;entryDx=0;entryDy=0;exitX=0.456;exitY=0.5;exitDx=0;exitDy=0;exitPerimeter=0;" parent="1" source="UL4YKMBXZopJeCdpC2au-113" target="UL4YKMBXZopJeCdpC2au-127" edge="1">
          <mxGeometry width="160" relative="1" as="geometry">
            <mxPoint x="2243" y="1410" as="sourcePoint" />
            <mxPoint x="2470" y="1420" as="targetPoint" />
            <Array as="points">
              <mxPoint x="2243" y="1510" />
              <mxPoint x="2340" y="1510" />
            </Array>
          </mxGeometry>
        </mxCell>
        <mxCell id="xdEpOosHyWj6ykagDoDC-85" value="" style="endArrow=diamondThin;endFill=1;endSize=24;html=1;rounded=0;edgeStyle=orthogonalEdgeStyle;entryX=0.564;entryY=0.017;entryDx=0;entryDy=0;entryPerimeter=0;" parent="1" target="X9t2nn5iT1wmEAKBCxQw-89" edge="1">
          <mxGeometry width="160" relative="1" as="geometry">
            <mxPoint x="1840" y="1580" as="sourcePoint" />
            <mxPoint x="2090" y="1682.41" as="targetPoint" />
            <Array as="points">
              <mxPoint x="1827" y="1580" />
            </Array>
          </mxGeometry>
        </mxCell>
        <mxCell id="xdEpOosHyWj6ykagDoDC-92" value="" style="endArrow=diamondThin;endFill=1;endSize=24;html=1;rounded=0;edgeStyle=orthogonalEdgeStyle;entryX=0.5;entryY=0;entryDx=0;entryDy=0;exitX=0.366;exitY=0.33;exitDx=0;exitDy=0;exitPerimeter=0;" parent="1" source="UL4YKMBXZopJeCdpC2au-101" target="xdEpOosHyWj6ykagDoDC-7" edge="1">
          <mxGeometry width="160" relative="1" as="geometry">
            <mxPoint x="1560" y="1570" as="sourcePoint" />
            <mxPoint x="1810" y="1580" as="targetPoint" />
            <Array as="points">
              <mxPoint x="1560" y="1558" />
            </Array>
          </mxGeometry>
        </mxCell>
        <mxCell id="xdEpOosHyWj6ykagDoDC-96" value="" style="endArrow=block;endSize=16;endFill=0;html=1;rounded=0;edgeStyle=orthogonalEdgeStyle;exitX=0.5;exitY=0;exitDx=0;exitDy=0;" parent="1" source="VXNcRWfN4zNZ4ETa913i-43" edge="1">
          <mxGeometry x="0.4847" y="-70" width="160" relative="1" as="geometry">
            <mxPoint x="550" y="1620" as="sourcePoint" />
            <mxPoint x="760" y="1520" as="targetPoint" />
            <Array as="points">
              <mxPoint x="630" y="1600" />
              <mxPoint x="760" y="1600" />
              <mxPoint x="760" y="1555" />
            </Array>
            <mxPoint as="offset" />
          </mxGeometry>
        </mxCell>
        <mxCell id="xdEpOosHyWj6ykagDoDC-99" value="" style="endArrow=block;endSize=16;endFill=0;html=1;rounded=0;edgeStyle=orthogonalEdgeStyle;exitX=0.5;exitY=0;exitDx=0;exitDy=0;" parent="1" source="VXNcRWfN4zNZ4ETa913i-48" edge="1">
          <mxGeometry width="160" relative="1" as="geometry">
            <mxPoint x="910" y="1500" as="sourcePoint" />
            <mxPoint x="759" y="1520" as="targetPoint" />
            <Array as="points">
              <mxPoint x="840" y="1600" />
              <mxPoint x="759" y="1600" />
            </Array>
          </mxGeometry>
        </mxCell>
        <mxCell id="QKs4qBYW7GnzKIks0Z7w-1" value="Validator" style="swimlane;fontStyle=0;childLayout=stackLayout;horizontal=1;startSize=26;fillColor=none;horizontalStack=0;resizeParent=1;resizeParentMax=0;resizeLast=0;collapsible=1;marginBottom=0;" parent="1" vertex="1">
          <mxGeometry x="4030" y="120" width="140" height="20" as="geometry">
            <mxRectangle x="4030" y="120" width="80" height="26" as="alternateBounds" />
          </mxGeometry>
        </mxCell>
        <mxCell id="QKs4qBYW7GnzKIks0Z7w-5" value="Searcher" style="swimlane;fontStyle=0;childLayout=stackLayout;horizontal=1;startSize=26;fillColor=none;horizontalStack=0;resizeParent=1;resizeParentMax=0;resizeLast=0;collapsible=1;marginBottom=0;" parent="1" vertex="1">
          <mxGeometry x="4210" y="120" width="140" height="20" as="geometry" />
        </mxCell>
        <mxCell id="QKs4qBYW7GnzKIks0Z7w-9" value="AnalyticsManager" style="swimlane;fontStyle=0;childLayout=stackLayout;horizontal=1;startSize=26;fillColor=none;horizontalStack=0;resizeParent=1;resizeParentMax=0;resizeLast=0;collapsible=1;marginBottom=0;" parent="1" vertex="1">
          <mxGeometry x="4390" y="120" width="140" height="20" as="geometry" />
        </mxCell>
        <mxCell id="QKs4qBYW7GnzKIks0Z7w-14" value="VoiceSearch" style="swimlane;fontStyle=0;childLayout=stackLayout;horizontal=1;startSize=26;fillColor=none;horizontalStack=0;resizeParent=1;resizeParentMax=0;resizeLast=0;collapsible=1;marginBottom=0;" parent="1" vertex="1">
          <mxGeometry x="3840" y="280" width="140" height="20" as="geometry" />
        </mxCell>
        <mxCell id="QKs4qBYW7GnzKIks0Z7w-18" value="StringSearch" style="swimlane;fontStyle=0;childLayout=stackLayout;horizontal=1;startSize=26;fillColor=none;horizontalStack=0;resizeParent=1;resizeParentMax=0;resizeLast=0;collapsible=1;marginBottom=0;" parent="1" vertex="1">
          <mxGeometry x="3840" y="437" width="140" height="23" as="geometry" />
        </mxCell>
        <mxCell id="QKs4qBYW7GnzKIks0Z7w-22" value="ImageSearch" style="swimlane;fontStyle=0;childLayout=stackLayout;horizontal=1;startSize=26;fillColor=none;horizontalStack=0;resizeParent=1;resizeParentMax=0;resizeLast=0;collapsible=1;marginBottom=0;" parent="1" vertex="1">
          <mxGeometry x="3840" y="587" width="140" height="23" as="geometry" />
        </mxCell>
        <mxCell id="QKs4qBYW7GnzKIks0Z7w-29" value="Query" style="swimlane;fontStyle=3;align=center;verticalAlign=top;childLayout=stackLayout;horizontal=1;startSize=26;horizontalStack=0;resizeParent=1;resizeParentMax=0;resizeLast=0;collapsible=1;marginBottom=0;" parent="1" vertex="1">
          <mxGeometry x="4050" y="-250" width="160" height="49" as="geometry" />
        </mxCell>
        <mxCell id="QKs4qBYW7GnzKIks0Z7w-33" value="VoiceQuery" style="swimlane;fontStyle=1;align=center;verticalAlign=top;childLayout=stackLayout;horizontal=1;startSize=26;horizontalStack=0;resizeParent=1;resizeParentMax=0;resizeLast=0;collapsible=1;marginBottom=0;" parent="1" vertex="1">
          <mxGeometry x="3840" y="-94" width="160" height="86" as="geometry" />
        </mxCell>
        <mxCell id="QKs4qBYW7GnzKIks0Z7w-34" value="+ field: type" style="text;strokeColor=none;fillColor=none;align=left;verticalAlign=top;spacingLeft=4;spacingRight=4;overflow=hidden;rotatable=0;points=[[0,0.5],[1,0.5]];portConstraint=eastwest;" parent="QKs4qBYW7GnzKIks0Z7w-33" vertex="1">
          <mxGeometry y="26" width="160" height="26" as="geometry" />
        </mxCell>
        <mxCell id="QKs4qBYW7GnzKIks0Z7w-35" value="" style="line;strokeWidth=1;fillColor=none;align=left;verticalAlign=middle;spacingTop=-1;spacingLeft=3;spacingRight=3;rotatable=0;labelPosition=right;points=[];portConstraint=eastwest;" parent="QKs4qBYW7GnzKIks0Z7w-33" vertex="1">
          <mxGeometry y="52" width="160" height="8" as="geometry" />
        </mxCell>
        <mxCell id="QKs4qBYW7GnzKIks0Z7w-36" value="+ method(type): type" style="text;strokeColor=none;fillColor=none;align=left;verticalAlign=top;spacingLeft=4;spacingRight=4;overflow=hidden;rotatable=0;points=[[0,0.5],[1,0.5]];portConstraint=eastwest;" parent="QKs4qBYW7GnzKIks0Z7w-33" vertex="1">
          <mxGeometry y="60" width="160" height="26" as="geometry" />
        </mxCell>
        <mxCell id="QKs4qBYW7GnzKIks0Z7w-37" value="StringQuery" style="swimlane;fontStyle=1;align=center;verticalAlign=top;childLayout=stackLayout;horizontal=1;startSize=26;horizontalStack=0;resizeParent=1;resizeParentMax=0;resizeLast=0;collapsible=1;marginBottom=0;" parent="1" vertex="1">
          <mxGeometry x="4050" y="-94" width="160" height="86" as="geometry" />
        </mxCell>
        <mxCell id="QKs4qBYW7GnzKIks0Z7w-38" value="+ field: type" style="text;strokeColor=none;fillColor=none;align=left;verticalAlign=top;spacingLeft=4;spacingRight=4;overflow=hidden;rotatable=0;points=[[0,0.5],[1,0.5]];portConstraint=eastwest;" parent="QKs4qBYW7GnzKIks0Z7w-37" vertex="1">
          <mxGeometry y="26" width="160" height="26" as="geometry" />
        </mxCell>
        <mxCell id="QKs4qBYW7GnzKIks0Z7w-39" value="" style="line;strokeWidth=1;fillColor=none;align=left;verticalAlign=middle;spacingTop=-1;spacingLeft=3;spacingRight=3;rotatable=0;labelPosition=right;points=[];portConstraint=eastwest;" parent="QKs4qBYW7GnzKIks0Z7w-37" vertex="1">
          <mxGeometry y="52" width="160" height="8" as="geometry" />
        </mxCell>
        <mxCell id="QKs4qBYW7GnzKIks0Z7w-40" value="+ method(type): type" style="text;strokeColor=none;fillColor=none;align=left;verticalAlign=top;spacingLeft=4;spacingRight=4;overflow=hidden;rotatable=0;points=[[0,0.5],[1,0.5]];portConstraint=eastwest;" parent="QKs4qBYW7GnzKIks0Z7w-37" vertex="1">
          <mxGeometry y="60" width="160" height="26" as="geometry" />
        </mxCell>
        <mxCell id="QKs4qBYW7GnzKIks0Z7w-41" value="ImageQuery" style="swimlane;fontStyle=1;align=center;verticalAlign=top;childLayout=stackLayout;horizontal=1;startSize=26;horizontalStack=0;resizeParent=1;resizeParentMax=0;resizeLast=0;collapsible=1;marginBottom=0;" parent="1" vertex="1">
          <mxGeometry x="4270" y="-94" width="160" height="86" as="geometry" />
        </mxCell>
        <mxCell id="QKs4qBYW7GnzKIks0Z7w-42" value="+ field: type" style="text;strokeColor=none;fillColor=none;align=left;verticalAlign=top;spacingLeft=4;spacingRight=4;overflow=hidden;rotatable=0;points=[[0,0.5],[1,0.5]];portConstraint=eastwest;" parent="QKs4qBYW7GnzKIks0Z7w-41" vertex="1">
          <mxGeometry y="26" width="160" height="26" as="geometry" />
        </mxCell>
        <mxCell id="QKs4qBYW7GnzKIks0Z7w-43" value="" style="line;strokeWidth=1;fillColor=none;align=left;verticalAlign=middle;spacingTop=-1;spacingLeft=3;spacingRight=3;rotatable=0;labelPosition=right;points=[];portConstraint=eastwest;" parent="QKs4qBYW7GnzKIks0Z7w-41" vertex="1">
          <mxGeometry y="52" width="160" height="8" as="geometry" />
        </mxCell>
        <mxCell id="QKs4qBYW7GnzKIks0Z7w-44" value="+ method(type): type" style="text;strokeColor=none;fillColor=none;align=left;verticalAlign=top;spacingLeft=4;spacingRight=4;overflow=hidden;rotatable=0;points=[[0,0.5],[1,0.5]];portConstraint=eastwest;" parent="QKs4qBYW7GnzKIks0Z7w-41" vertex="1">
          <mxGeometry y="60" width="160" height="26" as="geometry" />
        </mxCell>
        <mxCell id="QKs4qBYW7GnzKIks0Z7w-45" value="" style="endArrow=block;endSize=16;endFill=0;html=1;rounded=0;edgeStyle=orthogonalEdgeStyle;exitX=0.5;exitY=0;exitDx=0;exitDy=0;" parent="1" source="QKs4qBYW7GnzKIks0Z7w-33" edge="1">
          <mxGeometry width="160" relative="1" as="geometry">
            <mxPoint x="3900" y="-130" as="sourcePoint" />
            <mxPoint x="4130" y="-201" as="targetPoint" />
            <Array as="points">
              <mxPoint x="3920" y="-147" />
              <mxPoint x="4130" y="-147" />
              <mxPoint x="4130" y="-201" />
            </Array>
          </mxGeometry>
        </mxCell>
        <mxCell id="QKs4qBYW7GnzKIks0Z7w-47" value="" style="endArrow=block;endSize=16;endFill=0;html=1;rounded=0;edgeStyle=orthogonalEdgeStyle;exitX=0.5;exitY=0;exitDx=0;exitDy=0;" parent="1" source="QKs4qBYW7GnzKIks0Z7w-37" target="QKs4qBYW7GnzKIks0Z7w-29" edge="1">
          <mxGeometry width="160" relative="1" as="geometry">
            <mxPoint x="3930" y="-84" as="sourcePoint" />
            <mxPoint x="4110" y="-191" as="targetPoint" />
            <Array as="points">
              <mxPoint x="4130" y="-170" />
              <mxPoint x="4130" y="-170" />
            </Array>
          </mxGeometry>
        </mxCell>
        <mxCell id="QKs4qBYW7GnzKIks0Z7w-48" value="" style="endArrow=block;endSize=16;endFill=0;html=1;rounded=0;edgeStyle=orthogonalEdgeStyle;exitX=0.5;exitY=0;exitDx=0;exitDy=0;" parent="1" source="QKs4qBYW7GnzKIks0Z7w-41" edge="1">
          <mxGeometry width="160" relative="1" as="geometry">
            <mxPoint x="3930" y="-84" as="sourcePoint" />
            <mxPoint x="4130" y="-200" as="targetPoint" />
            <Array as="points">
              <mxPoint x="4350" y="-147" />
              <mxPoint x="4130" y="-147" />
              <mxPoint x="4130" y="-200" />
            </Array>
          </mxGeometry>
        </mxCell>
        <mxCell id="QKs4qBYW7GnzKIks0Z7w-52" value="Client" style="swimlane;fontStyle=1;align=center;verticalAlign=top;childLayout=stackLayout;horizontal=1;startSize=26;horizontalStack=0;resizeParent=1;resizeParentMax=0;resizeLast=0;collapsible=1;marginBottom=0;" parent="1" vertex="1">
          <mxGeometry x="3820" y="810" width="200" height="100" as="geometry" />
        </mxCell>
        <mxCell id="QKs4qBYW7GnzKIks0Z7w-53" value="- searcher: SearchEngine" style="text;strokeColor=none;fillColor=none;align=left;verticalAlign=top;spacingLeft=4;spacingRight=4;overflow=hidden;rotatable=0;points=[[0,0.5],[1,0.5]];portConstraint=eastwest;" parent="QKs4qBYW7GnzKIks0Z7w-52" vertex="1">
          <mxGeometry y="26" width="200" height="26" as="geometry" />
        </mxCell>
        <mxCell id="QKs4qBYW7GnzKIks0Z7w-54" value="" style="line;strokeWidth=1;fillColor=none;align=left;verticalAlign=middle;spacingTop=-1;spacingLeft=3;spacingRight=3;rotatable=0;labelPosition=right;points=[];portConstraint=eastwest;" parent="QKs4qBYW7GnzKIks0Z7w-52" vertex="1">
          <mxGeometry y="52" width="200" height="8" as="geometry" />
        </mxCell>
        <mxCell id="QKs4qBYW7GnzKIks0Z7w-55" value="+ Client(engine : SearchEngine)&#xa;+ sendQuery() : Query" style="text;strokeColor=none;fillColor=none;align=left;verticalAlign=top;spacingLeft=4;spacingRight=4;overflow=hidden;rotatable=0;points=[[0,0.5],[1,0.5]];portConstraint=eastwest;" parent="QKs4qBYW7GnzKIks0Z7w-52" vertex="1">
          <mxGeometry y="60" width="200" height="40" as="geometry" />
        </mxCell>
        <mxCell id="QKs4qBYW7GnzKIks0Z7w-57" value="&lt;div&gt;Todo: keyword suggester&lt;/div&gt;&lt;div&gt;page ranker&lt;br&gt;&lt;/div&gt;" style="html=1;" parent="1" vertex="1">
          <mxGeometry x="3630" y="1320" width="110" height="50" as="geometry" />
        </mxCell>
        <mxCell id="ulZ0jbCKSlaguCblbPYP-2" value="&lt;p style=&quot;margin: 0px ; margin-top: 4px ; text-align: center&quot;&gt;&lt;b&gt;&amp;lt;&amp;lt;dataType&amp;gt;&amp;gt;&lt;/b&gt;&lt;/p&gt;&lt;p style=&quot;margin: 0px ; margin-top: 4px ; text-align: center&quot;&gt;&lt;b&gt;LexiconMap&lt;/b&gt;&lt;/p&gt;&lt;hr size=&quot;1&quot;&gt;&lt;div style=&quot;height: 2px&quot;&gt;&lt;br&gt;&lt;/div&gt;&lt;div style=&quot;height: 2px&quot;&gt;&lt;br&gt;&lt;/div&gt;&lt;div style=&quot;height: 2px&quot;&gt;+ key: String&lt;/div&gt;&lt;div style=&quot;height: 2px&quot;&gt;&lt;br&gt;&lt;/div&gt;&lt;div style=&quot;height: 2px&quot;&gt;&lt;br&gt;&lt;/div&gt;&lt;div style=&quot;height: 2px&quot;&gt;&lt;br&gt;&lt;/div&gt;&lt;div style=&quot;height: 2px&quot;&gt;&lt;br&gt;&lt;/div&gt;&lt;div style=&quot;height: 2px&quot;&gt;&lt;br&gt;&lt;/div&gt;&lt;div style=&quot;height: 2px&quot;&gt;&lt;br&gt;&lt;/div&gt;&lt;div style=&quot;height: 2px&quot;&gt;&lt;br&gt;&lt;/div&gt;&lt;div style=&quot;height: 2px&quot;&gt;&lt;br&gt;&lt;/div&gt;&lt;div style=&quot;height: 2px&quot;&gt;&lt;br&gt;&lt;/div&gt;&lt;div style=&quot;height: 2px&quot;&gt;+ value: Int&lt;/div&gt;&lt;div style=&quot;height: 2px&quot;&gt;&lt;br&gt;&lt;/div&gt;" style="verticalAlign=top;align=left;overflow=fill;fontSize=12;fontFamily=Helvetica;html=1;" parent="1" vertex="1">
          <mxGeometry x="2550" y="-170" width="140" height="100" as="geometry" />
        </mxCell>
        <mxCell id="ulZ0jbCKSlaguCblbPYP-3" value="Use" style="endArrow=open;endSize=12;dashed=1;html=1;entryX=0.5;entryY=1;entryDx=0;entryDy=0;" parent="1" target="ulZ0jbCKSlaguCblbPYP-2" edge="1">
          <mxGeometry width="160" relative="1" as="geometry">
            <mxPoint x="2490" y="-40" as="sourcePoint" />
            <mxPoint x="2650" y="-50" as="targetPoint" />
            <Array as="points">
              <mxPoint x="2620" y="-40" />
            </Array>
          </mxGeometry>
        </mxCell>
        <mxCell id="ulZ0jbCKSlaguCblbPYP-7" value="Use" style="endArrow=open;endSize=12;dashed=1;html=1;exitX=0.171;exitY=1.045;exitDx=0;exitDy=0;exitPerimeter=0;entryX=0.5;entryY=0;entryDx=0;entryDy=0;" parent="1" source="VXNcRWfN4zNZ4ETa913i-4" target="UL4YKMBXZopJeCdpC2au-22" edge="1">
          <mxGeometry x="-0.0412" y="-6" width="160" relative="1" as="geometry">
            <mxPoint x="880" y="520" as="sourcePoint" />
            <mxPoint x="1040" y="520" as="targetPoint" />
            <Array as="points">
              <mxPoint x="881" y="520" />
              <mxPoint x="720" y="520" />
            </Array>
            <mxPoint as="offset" />
          </mxGeometry>
        </mxCell>
        <mxCell id="ulZ0jbCKSlaguCblbPYP-9" value="" style="endArrow=open;html=1;endSize=12;startArrow=diamondThin;startSize=14;startFill=1;edgeStyle=orthogonalEdgeStyle;align=left;verticalAlign=bottom;exitX=0.564;exitY=0.994;exitDx=0;exitDy=0;exitPerimeter=0;entryX=0.553;entryY=0.012;entryDx=0;entryDy=0;entryPerimeter=0;" parent="1" source="VXNcRWfN4zNZ4ETa913i-6" target="VXNcRWfN4zNZ4ETa913i-9" edge="1">
          <mxGeometry x="-0.1519" y="80" relative="1" as="geometry">
            <mxPoint x="510" y="1150" as="sourcePoint" />
            <mxPoint x="514" y="1300" as="targetPoint" />
            <Array as="points">
              <mxPoint x="515" y="1340" />
              <mxPoint x="517" y="1340" />
            </Array>
            <mxPoint as="offset" />
          </mxGeometry>
        </mxCell>
        <mxCell id="ulZ0jbCKSlaguCblbPYP-10" value="1" style="endArrow=open;html=1;endSize=12;startArrow=diamondThin;startSize=14;startFill=1;edgeStyle=orthogonalEdgeStyle;align=left;verticalAlign=bottom;entryX=0.25;entryY=0;entryDx=0;entryDy=0;" parent="1" target="VXNcRWfN4zNZ4ETa913i-38" edge="1">
          <mxGeometry x="-1" y="3" relative="1" as="geometry">
            <mxPoint x="620" y="1400" as="sourcePoint" />
            <mxPoint x="780" y="1400" as="targetPoint" />
          </mxGeometry>
        </mxCell>
        <mxCell id="ulZ0jbCKSlaguCblbPYP-11" value="1" style="endArrow=open;html=1;endSize=12;startArrow=diamondThin;startSize=14;startFill=1;edgeStyle=orthogonalEdgeStyle;align=left;verticalAlign=bottom;entryX=0.5;entryY=0;entryDx=0;entryDy=0;" parent="1" target="VXNcRWfN4zNZ4ETa913i-38" edge="1">
          <mxGeometry x="-1" y="3" relative="1" as="geometry">
            <mxPoint x="760" y="1320" as="sourcePoint" />
            <mxPoint x="920" y="1320" as="targetPoint" />
          </mxGeometry>
        </mxCell>
        <mxCell id="ulZ0jbCKSlaguCblbPYP-12" value="" style="endArrow=open;html=1;endSize=12;startArrow=diamondThin;startSize=14;startFill=1;edgeStyle=orthogonalEdgeStyle;align=left;verticalAlign=bottom;entryX=0.5;entryY=0;entryDx=0;entryDy=0;" parent="1" target="X9t2nn5iT1wmEAKBCxQw-51" edge="1">
          <mxGeometry x="0.6" y="130" relative="1" as="geometry">
            <mxPoint x="770" y="1130" as="sourcePoint" />
            <mxPoint x="930" y="1150" as="targetPoint" />
            <mxPoint as="offset" />
          </mxGeometry>
        </mxCell>
        <mxCell id="ulZ0jbCKSlaguCblbPYP-13" value="Use" style="endArrow=open;endSize=12;dashed=1;html=1;exitX=0;exitY=0.5;exitDx=0;exitDy=0;entryX=1;entryY=0.5;entryDx=0;entryDy=0;" parent="1" source="X9t2nn5iT1wmEAKBCxQw-65" target="X9t2nn5iT1wmEAKBCxQw-26" edge="1">
          <mxGeometry x="0.618" y="-13" width="160" relative="1" as="geometry">
            <mxPoint x="830" y="650" as="sourcePoint" />
            <mxPoint x="990" y="650" as="targetPoint" />
            <Array as="points">
              <mxPoint x="760" y="717" />
              <mxPoint x="760" y="760" />
              <mxPoint x="760" y="823" />
            </Array>
            <mxPoint as="offset" />
          </mxGeometry>
        </mxCell>
        <mxCell id="ulZ0jbCKSlaguCblbPYP-15" value="" style="endArrow=open;endFill=1;endSize=12;html=1;" parent="1" edge="1">
          <mxGeometry width="160" relative="1" as="geometry">
            <mxPoint x="2220" y="1060" as="sourcePoint" />
            <mxPoint x="2280" y="1020" as="targetPoint" />
            <Array as="points">
              <mxPoint x="2280" y="1060" />
            </Array>
          </mxGeometry>
        </mxCell>
        <mxCell id="ulZ0jbCKSlaguCblbPYP-21" value="&lt;p style=&quot;margin: 0px ; margin-top: 4px ; text-align: center&quot;&gt;&lt;i&gt;&amp;lt;&amp;lt;Interface&amp;gt;&amp;gt;&lt;/i&gt;&lt;br&gt;&lt;b&gt;SearchEngine&lt;/b&gt;&lt;/p&gt;&lt;hr size=&quot;1&quot;&gt;&lt;p style=&quot;margin: 0px ; margin-left: 4px&quot;&gt;+ validateQuery(query: Query): type&lt;br&gt;&lt;/p&gt;&lt;p style=&quot;margin: 0px ; margin-left: 4px&quot;&gt;+ search(query: Query): queryResponse&lt;br&gt;&lt;/p&gt;" style="verticalAlign=top;align=left;overflow=fill;fontSize=12;fontFamily=Helvetica;html=1;" parent="1" vertex="1">
          <mxGeometry x="4110" y="610" width="290" height="94" as="geometry" />
        </mxCell>
        <mxCell id="ulZ0jbCKSlaguCblbPYP-22" value="Use" style="endArrow=open;endSize=12;dashed=1;html=1;entryX=0.223;entryY=1.051;entryDx=0;entryDy=0;entryPerimeter=0;" parent="1" target="ulZ0jbCKSlaguCblbPYP-21" edge="1">
          <mxGeometry width="160" relative="1" as="geometry">
            <mxPoint x="4020" y="850" as="sourcePoint" />
            <mxPoint x="4140" y="850" as="targetPoint" />
            <Array as="points">
              <mxPoint x="4175" y="850" />
            </Array>
          </mxGeometry>
        </mxCell>
        <mxCell id="ulZ0jbCKSlaguCblbPYP-23" value="&lt;p style=&quot;margin: 0px ; margin-top: 4px ; text-align: center&quot;&gt;&lt;b&gt;ImageSearchEngine&lt;/b&gt;&lt;/p&gt;&lt;hr size=&quot;1&quot;&gt;&lt;p style=&quot;margin: 0px ; margin-left: 4px&quot;&gt;+ field: Type&lt;/p&gt;&lt;hr size=&quot;1&quot;&gt;&lt;p style=&quot;margin: 0px 0px 0px 4px&quot;&gt;+ validateQuery(query: Query): type&lt;br&gt;&lt;/p&gt;&lt;p style=&quot;margin: 0px 0px 0px 4px&quot;&gt;+ search(query: Query): queryResponse&lt;/p&gt;" style="verticalAlign=top;align=left;overflow=fill;fontSize=12;fontFamily=Helvetica;html=1;" parent="1" vertex="1">
          <mxGeometry x="4535" y="487" width="280" height="100" as="geometry" />
        </mxCell>
        <mxCell id="ulZ0jbCKSlaguCblbPYP-26" value="&lt;p style=&quot;margin: 0px ; margin-top: 4px ; text-align: center&quot;&gt;&lt;b&gt;TextSearchEngine&lt;/b&gt;&lt;/p&gt;&lt;hr size=&quot;1&quot;&gt;&lt;p style=&quot;margin: 0px ; margin-left: 4px&quot;&gt;+ field: Type&lt;/p&gt;&lt;hr size=&quot;1&quot;&gt;&lt;p style=&quot;margin: 0px 0px 0px 4px&quot;&gt;+ validateQuery(query: Query): type&lt;br&gt;&lt;/p&gt;&lt;p style=&quot;margin: 0px 0px 0px 4px&quot;&gt;+ search(query: Query): queryResponse&lt;/p&gt;" style="verticalAlign=top;align=left;overflow=fill;fontSize=12;fontFamily=Helvetica;html=1;" parent="1" vertex="1">
          <mxGeometry x="4530" y="630" width="280" height="100" as="geometry" />
        </mxCell>
        <mxCell id="ulZ0jbCKSlaguCblbPYP-27" value="&lt;p style=&quot;margin: 0px ; margin-top: 4px ; text-align: center&quot;&gt;&lt;b&gt;SoundSearchEngine&lt;/b&gt;&lt;/p&gt;&lt;hr size=&quot;1&quot;&gt;&lt;p style=&quot;margin: 0px ; margin-left: 4px&quot;&gt;+ field: Type&lt;/p&gt;&lt;hr size=&quot;1&quot;&gt;&lt;p style=&quot;margin: 0px 0px 0px 4px&quot;&gt;+ validateQuery(query: Query): type&lt;br&gt;&lt;/p&gt;&lt;p style=&quot;margin: 0px 0px 0px 4px&quot;&gt;+ search(query: Query): queryResponse&lt;/p&gt;" style="verticalAlign=top;align=left;overflow=fill;fontSize=12;fontFamily=Helvetica;html=1;" parent="1" vertex="1">
          <mxGeometry x="4535" y="780" width="280" height="105" as="geometry" />
        </mxCell>
        <mxCell id="ulZ0jbCKSlaguCblbPYP-28" value="" style="endArrow=block;dashed=1;endFill=0;endSize=12;html=1;entryX=0.75;entryY=0;entryDx=0;entryDy=0;exitX=0;exitY=0.5;exitDx=0;exitDy=0;" parent="1" source="ulZ0jbCKSlaguCblbPYP-23" target="ulZ0jbCKSlaguCblbPYP-21" edge="1">
          <mxGeometry width="160" relative="1" as="geometry">
            <mxPoint x="4470" y="540" as="sourcePoint" />
            <mxPoint x="4630" y="540" as="targetPoint" />
            <Array as="points">
              <mxPoint x="4328" y="540" />
            </Array>
          </mxGeometry>
        </mxCell>
        <mxCell id="ulZ0jbCKSlaguCblbPYP-29" value="" style="endArrow=block;dashed=1;endFill=0;endSize=12;html=1;entryX=1;entryY=0.75;entryDx=0;entryDy=0;" parent="1" target="ulZ0jbCKSlaguCblbPYP-21" edge="1">
          <mxGeometry width="160" relative="1" as="geometry">
            <mxPoint x="4530" y="680" as="sourcePoint" />
            <mxPoint x="4690" y="680" as="targetPoint" />
          </mxGeometry>
        </mxCell>
        <mxCell id="ulZ0jbCKSlaguCblbPYP-30" value="" style="endArrow=block;dashed=1;endFill=0;endSize=12;html=1;" parent="1" edge="1">
          <mxGeometry width="160" relative="1" as="geometry">
            <mxPoint x="4530" y="830" as="sourcePoint" />
            <mxPoint x="4320" y="710" as="targetPoint" />
            <Array as="points">
              <mxPoint x="4320" y="830" />
            </Array>
          </mxGeometry>
        </mxCell>
        <mxCell id="ulZ0jbCKSlaguCblbPYP-31" value="Use" style="endArrow=open;endSize=12;dashed=1;html=1;entryX=1;entryY=0.5;entryDx=0;entryDy=0;" parent="1" target="QKs4qBYW7GnzKIks0Z7w-29" edge="1">
          <mxGeometry x="-0.0368" y="-10" width="160" relative="1" as="geometry">
            <mxPoint x="4370" y="610" as="sourcePoint" />
            <mxPoint x="4530" y="610" as="targetPoint" />
            <Array as="points">
              <mxPoint x="4370" y="400" />
              <mxPoint x="4620" y="400" />
              <mxPoint x="4620" y="-225" />
            </Array>
            <mxPoint as="offset" />
          </mxGeometry>
        </mxCell>
        <mxCell id="ulZ0jbCKSlaguCblbPYP-33" value="" style="endArrow=open;endFill=1;endSize=12;html=1;" parent="1" edge="1">
          <mxGeometry width="160" relative="1" as="geometry">
            <mxPoint x="4020" y="890" as="sourcePoint" />
            <mxPoint x="4250" y="710" as="targetPoint" />
            <Array as="points">
              <mxPoint x="4250" y="890" />
            </Array>
          </mxGeometry>
        </mxCell>
        <mxCell id="ulZ0jbCKSlaguCblbPYP-37" value="Extends" style="endArrow=block;endSize=16;endFill=0;html=1;" parent="1" edge="1">
          <mxGeometry width="160" relative="1" as="geometry">
            <mxPoint x="1830" y="1700" as="sourcePoint" />
            <mxPoint x="2760" y="1060" as="targetPoint" />
            <Array as="points">
              <mxPoint x="1830" y="1850" />
              <mxPoint x="3330" y="1860" />
              <mxPoint x="3330" y="1060" />
            </Array>
          </mxGeometry>
        </mxCell>
        <mxCell id="ulZ0jbCKSlaguCblbPYP-38" value="Extends" style="endArrow=block;endSize=16;endFill=0;html=1;" parent="1" edge="1">
          <mxGeometry width="160" relative="1" as="geometry">
            <mxPoint x="1560" y="1710" as="sourcePoint" />
            <mxPoint x="2760" y="1030" as="targetPoint" />
            <Array as="points">
              <mxPoint x="1560" y="1790" />
              <mxPoint x="1560" y="1940" />
              <mxPoint x="3400" y="1960" />
              <mxPoint x="3390" y="1030" />
            </Array>
          </mxGeometry>
        </mxCell>
        <mxCell id="ulZ0jbCKSlaguCblbPYP-39" value="Extends" style="endArrow=block;endSize=16;endFill=0;html=1;exitX=0.5;exitY=1;exitDx=0;exitDy=0;" parent="1" source="ZvxXPG6ARuYnSKrhNRSG-1" edge="1">
          <mxGeometry width="160" relative="1" as="geometry">
            <mxPoint x="2080" y="1600" as="sourcePoint" />
            <mxPoint x="2760" y="1100" as="targetPoint" />
            <Array as="points">
              <mxPoint x="2080" y="1780" />
              <mxPoint x="3210" y="1790" />
              <mxPoint x="3210" y="1100" />
            </Array>
          </mxGeometry>
        </mxCell>
        <mxCell id="ulZ0jbCKSlaguCblbPYP-40" value="Extends" style="endArrow=block;endSize=16;endFill=0;html=1;entryX=1;entryY=0.5;entryDx=0;entryDy=0;" parent="1" target="ZvxXPG6ARuYnSKrhNRSG-18" edge="1">
          <mxGeometry width="160" relative="1" as="geometry">
            <mxPoint x="2340" y="1590" as="sourcePoint" />
            <mxPoint x="2340" y="1720" as="targetPoint" />
            <Array as="points">
              <mxPoint x="2340" y="1690" />
              <mxPoint x="3160" y="1690" />
              <mxPoint x="3160" y="1141" />
            </Array>
          </mxGeometry>
        </mxCell>
        <mxCell id="ulZ0jbCKSlaguCblbPYP-46" value="Extends" style="endArrow=block;endSize=16;endFill=0;html=1;exitX=0.5;exitY=0;exitDx=0;exitDy=0;" parent="1" source="xdEpOosHyWj6ykagDoDC-12" edge="1">
          <mxGeometry width="160" relative="1" as="geometry">
            <mxPoint x="1120" y="1360" as="sourcePoint" />
            <mxPoint x="1760" y="1280" as="targetPoint" />
            <Array as="points">
              <mxPoint x="1110" y="1320" />
              <mxPoint x="1760" y="1320" />
            </Array>
          </mxGeometry>
        </mxCell>
        <mxCell id="nHTIsOpt5-FmUogmospr-3" value="&lt;p style=&quot;margin: 0px ; margin-top: 4px ; text-align: center&quot;&gt;&lt;/p&gt;&lt;div style=&quot;text-align: center ; height: 2px&quot;&gt;&lt;b&gt;DataSource&lt;/b&gt;&lt;/div&gt;" style="verticalAlign=top;align=left;overflow=fill;fontSize=12;fontFamily=Helvetica;html=1;" vertex="1" parent="1">
          <mxGeometry x="510" y="220" width="130" height="30" as="geometry" />
        </mxCell>
        <mxCell id="nHTIsOpt5-FmUogmospr-4" value="Document" style="html=1;align=center;fontStyle=3" vertex="1" parent="1">
          <mxGeometry x="290" y="525" width="110" height="50" as="geometry" />
        </mxCell>
        <mxCell id="nHTIsOpt5-FmUogmospr-5" value="Use" style="endArrow=open;endSize=12;dashed=1;html=1;rounded=0;edgeStyle=orthogonalEdgeStyle;entryX=0;entryY=0.5;entryDx=0;entryDy=0;" edge="1" parent="1" target="nHTIsOpt5-FmUogmospr-4">
          <mxGeometry width="160" relative="1" as="geometry">
            <mxPoint x="240" y="460" as="sourcePoint" />
            <mxPoint x="240" y="560" as="targetPoint" />
            <Array as="points">
              <mxPoint x="240" y="550" />
            </Array>
          </mxGeometry>
        </mxCell>
        <mxCell id="nHTIsOpt5-FmUogmospr-6" value="Use" style="endArrow=open;endSize=12;dashed=1;html=1;rounded=0;edgeStyle=orthogonalEdgeStyle;exitX=0.002;exitY=1;exitDx=0;exitDy=0;exitPerimeter=0;entryX=0.698;entryY=-0.004;entryDx=0;entryDy=0;entryPerimeter=0;" edge="1" parent="1" source="VXNcRWfN4zNZ4ETa913i-4" target="nHTIsOpt5-FmUogmospr-4">
          <mxGeometry width="160" relative="1" as="geometry">
            <mxPoint x="680" y="470" as="sourcePoint" />
            <mxPoint x="840" y="470" as="targetPoint" />
          </mxGeometry>
        </mxCell>
        <mxCell id="nHTIsOpt5-FmUogmospr-13" value="" style="endArrow=diamondThin;endFill=0;endSize=24;html=1;rounded=0;edgeStyle=orthogonalEdgeStyle;entryX=0.25;entryY=0;entryDx=0;entryDy=0;exitX=0.498;exitY=1.046;exitDx=0;exitDy=0;exitPerimeter=0;" edge="1" parent="1" source="vnPngC09RosFCxPqreI9-12" target="UL4YKMBXZopJeCdpC2au-59">
          <mxGeometry width="160" relative="1" as="geometry">
            <mxPoint x="950" y="-20" as="sourcePoint" />
            <mxPoint x="1110" y="-20" as="targetPoint" />
            <Array as="points">
              <mxPoint x="920" y="-10" />
              <mxPoint x="1078" y="-10" />
            </Array>
          </mxGeometry>
        </mxCell>
        <mxCell id="nHTIsOpt5-FmUogmospr-14" value="" style="endArrow=diamondThin;endFill=0;endSize=24;html=1;rounded=0;edgeStyle=orthogonalEdgeStyle;exitX=0.48;exitY=1.077;exitDx=0;exitDy=0;exitPerimeter=0;" edge="1" parent="1" source="vnPngC09RosFCxPqreI9-16">
          <mxGeometry width="160" relative="1" as="geometry">
            <mxPoint x="1055" y="4" as="sourcePoint" />
            <mxPoint x="1075" y="44" as="targetPoint" />
            <Array as="points">
              <mxPoint x="1227" />
              <mxPoint x="1075" />
            </Array>
          </mxGeometry>
        </mxCell>
        <mxCell id="nHTIsOpt5-FmUogmospr-15" value="Use" style="endArrow=open;endSize=12;dashed=1;html=1;rounded=0;edgeStyle=orthogonalEdgeStyle;entryX=0.458;entryY=0;entryDx=0;entryDy=0;entryPerimeter=0;" edge="1" parent="1">
          <mxGeometry width="160" relative="1" as="geometry">
            <mxPoint x="1990" y="860" as="sourcePoint" />
            <mxPoint x="1633.2800000000002" y="980" as="targetPoint" />
          </mxGeometry>
        </mxCell>
        <mxCell id="nHTIsOpt5-FmUogmospr-16" value="htmlElement" style="html=1;align=center;fontStyle=1" vertex="1" parent="1">
          <mxGeometry x="1580" y="976" width="110" height="50" as="geometry" />
        </mxCell>
      </root>
    </mxGraphModel>
  </diagram>
</mxfile>
